<svg width="563" height="808" viewBox="0 0 563 808" fill="none" xmlns="http://www.w3.org/2000/svg">
<rect width="563" height="808" rx="23" fill="#DB653E"/>
<path d="M264.442 222.935C267.713 229.539 271.179 235.302 270.509 239.123C273.002 238.296 278.562 224.444 269.638 219.267C266.687 221.35 265.361 222.286 264.442 222.935Z" fill="#7D170F"/>
<path d="M234.466 246.789C234.466 246.789 236.336 244.648 247.247 247.613C256.119 250.024 272.715 258.051 285.04 255.258C312.522 249.031 313.332 229.862 313.332 229.862C313.332 229.862 307.627 207.944 310.272 207.941C312.917 207.938 316.676 223.473 317.061 226.348C317.264 226.991 318.306 226.858 319.048 226.141C320.386 224.403 330.266 210.956 332.626 212.877C335.395 216.739 328.339 222.26 320.744 231.574C315.319 238.758 304.192 263.022 279.203 260.656C254.215 258.291 247.734 250.315 234.893 252.362C234.893 252.362 231.961 251.436 232.083 251.133C232.204 250.829 234.466 246.787 234.466 246.787V246.789Z" fill="#7D170F"/>
<path d="M180.463 258.978C180.463 258.978 181.193 227.679 192.947 225.899C209.404 223.472 250.911 213.039 256.666 211.988C262.422 210.936 266.475 210.289 269.637 219.266C269.637 219.266 237.332 242.034 235.954 243.348C234.575 244.662 234.454 246.361 234.292 248.787C234.13 251.214 234.292 252.184 235.913 253.236C237.535 254.287 271.502 267.147 271.502 267.147C271.502 267.147 274.643 271.272 269.232 272.303C263.82 273.334 217.348 274.304 217.348 274.304L180.462 258.978H180.463Z" fill="#F6F6F6"/>
<path d="M180.463 261.243C180.463 261.243 103.375 315.384 118.288 419.498C133.201 523.612 238.467 551.394 238.467 551.394C238.467 551.394 320.872 550.787 328.695 550.302C495.085 494.496 467.198 274.305 352.407 256.714L351.799 259.383C451.525 348.499 428.464 428.683 393.134 473.832C368.857 504.857 338.787 515.848 338.787 515.848L223.996 513.665C104.34 449.852 147.468 303.624 217.348 274.305L180.462 258.979V261.244L180.463 261.243Z" fill="#AD866C"/>
<path d="M205.499 280.545L205.393 280.613L205.499 280.545Z" fill="#FDFDFD"/>
<path d="M353.6 256.914C353.202 256.848 352.807 256.775 352.407 256.713L351.799 259.382C352.394 259.914 352.981 260.445 353.568 260.977C353.763 259.57 353.704 258.059 353.6 256.913V256.914Z" fill="#FDFDFD"/>
<path d="M372.49 262.144C373.194 263.144 373.829 264.139 374.195 264.929C375.173 267.041 369.483 272.328 367.355 274.203C369.201 276.085 370.993 277.961 372.733 279.833C375.267 276.952 379.798 271.865 381.102 270.833C382.941 269.377 394.061 281.59 395.399 281.994C396.737 282.398 396.904 285.391 396.067 286.685C395.354 287.789 388.925 294.598 387.05 296.576C388.61 298.574 390.113 300.565 391.559 302.549C394.443 300.218 399.295 296.254 399.941 295.439C400.868 294.269 403.624 292.137 404.41 293.564C405.197 294.99 413.848 304.525 415.838 307.685C417.459 310.257 406.544 316.754 402.431 319.08C403.751 321.326 405.002 323.562 406.183 325.786C409.153 323.906 413.869 320.986 416.753 319.521C421.212 317.257 421.484 319.521 421.484 319.521C421.484 319.521 427.21 332.38 429.643 335.939C431.722 338.983 418.574 342.615 414.364 343.705C415.257 346.037 416.078 348.355 416.828 350.658C419.97 349.946 427.209 348.243 428.346 347.424C429.805 346.372 432.48 346.453 433.128 349.445C433.777 352.438 436.452 361.82 437.344 364.326C438.236 366.834 437.993 367.804 435.156 368.289C432.994 368.659 425.478 369.966 421.728 370.747C422.115 373.136 422.431 375.505 422.677 377.852C425.865 377.565 433.165 376.942 436.534 376.942C437.709 376.744 439.371 376.929 439.412 380.349C439.452 383.769 439.938 394.074 439.938 396.515C439.938 399.064 428.366 399.203 423.061 399.068C422.92 401.131 422.728 403.174 422.487 405.195C426.369 405.566 434.776 406.414 437.425 407.029C440.911 407.838 436.533 421.829 435.804 426.601C435.196 430.573 422.63 426.589 418.435 425.142C417.819 427.277 417.151 429.381 416.437 431.455C421.392 433.226 430.747 436.652 432.192 437.761C434.171 439.28 427.369 451.687 426.175 456.1C425.212 459.657 412.767 453.496 407.972 450.97C406.884 453.035 405.756 455.057 404.591 457.034C409.429 459.365 418.464 463.742 420.401 464.855C423.076 466.392 412.214 481.758 410.43 484.023C408.982 485.861 397.917 476.879 393.545 473.304C393.408 473.48 393.272 473.658 393.135 473.832C391.885 475.431 390.618 476.973 389.341 478.466C392.185 482.34 399.758 488.133 402.729 490.089C406.539 492.596 393.164 506.264 389.678 507.396C389.342 504.378 378.202 496.196 374.402 493.486C373.032 494.671 371.673 495.799 370.329 496.879C372.602 500.1 380.137 510.743 381.836 512.694C383.842 515 367.015 524.765 365.237 526.039C362.518 525.271 354.994 512.842 352.71 508.978C350.796 510.088 349.026 511.05 347.435 511.874L357.09 530.346L338.303 538.959C338.303 538.959 328.939 519.548 329 519.245L328.408 515.65L227.827 513.737L245.652 521.271C245.652 521.271 237.948 542.522 237.293 544.065C236.638 545.609 217.664 537.11 217.664 537.11C215.863 536.486 219.516 530.504 222.128 524.372C223.998 519.983 225.2 515.476 225.641 513.696L223.997 513.664C223.091 513.181 222.194 512.692 221.306 512.199C219.082 516.505 211.831 530.199 208.916 531.481C205.489 531.877 195.965 524.865 192.251 522.417C191.074 521.641 192.368 518.93 193.862 515.72C196.44 510.181 201.015 502.936 202.741 500.263C201.942 499.669 201.153 499.071 200.375 498.468L199.749 499.367C199.749 499.367 183.99 514.709 181.639 513.715C179.287 512.721 173.205 505.276 170.996 503.947C168.787 502.618 166.259 501.417 169.039 497.982C171.274 495.22 180.127 486.502 183.521 483.181C182.602 482.199 181.699 481.21 180.82 480.213C180.928 480.41 180.991 480.527 180.991 480.527C180.991 480.527 161.848 492.834 159.945 492.029C156.747 487.121 153.152 482.834 150.48 477.62C147.808 472.406 167.483 463.195 167.483 463.195C167.738 463.226 168.009 463.317 168.292 463.45C167.351 461.949 166.448 460.435 165.581 458.912C165.52 459.234 165.394 459.469 165.173 459.574L143.745 466.737C143.745 466.737 136.107 450.202 134.794 449.251C136.075 446.235 137.622 445.703 137.622 445.703C137.622 445.703 150.249 441.158 154.52 437.597C154.937 437.534 155.71 438.293 156.658 439.552C155.619 436.67 154.688 433.769 153.868 430.852C147.07 437.257 130.729 437.479 130.729 437.479L127.811 418.432C127.556 416.909 133.791 417.125 139.796 415.575C144.183 414.443 148.439 412.133 149.959 411.258C149.795 409.907 149.652 408.556 149.529 407.204C145.106 407.44 127.718 408.362 126.252 408.362C124.573 408.362 125.014 387.617 125.014 387.617C124.887 385.719 131.833 386.742 138.512 386.749C142.891 386.754 147.143 386.206 149.223 385.891C149.317 384.342 149.437 382.798 149.58 381.257C144.929 380.912 129.144 379.589 126.798 377.385C125.096 374.393 127.852 362.909 128.662 358.541C128.919 357.157 131.926 357.289 135.472 357.409C141.616 357.617 150.136 359.005 153.243 359.542C153.479 358.581 153.719 357.624 153.973 356.669L152.861 356.438C152.861 356.438 132.553 347.945 132.553 345.398C132.553 342.851 137.053 334.358 137.418 331.811C137.783 329.264 137.905 326.473 142.16 327.686C145.571 328.658 157.019 333.368 161.434 335.201C161.922 334.077 162.42 332.962 162.931 331.857C162.922 331.85 144.105 319.072 144.105 317.01C147.389 312.157 149.943 307.184 153.712 302.695C157.482 298.206 173.659 312.686 173.659 312.686V312.69C174.458 311.492 175.274 310.313 176.104 309.153L176.1 309.151L161.13 292.262C161.13 292.262 173.412 278.796 173.776 277.218C177.06 277.218 178.154 278.431 178.154 278.431C178.154 278.431 187.274 288.258 192.228 290.792V290.795C193.095 290 193.971 289.223 194.856 288.465C191.868 284.859 181.113 271.789 181.113 270.465C181.113 268.926 181.924 269.898 183.139 269.089C184.355 268.281 182.896 270.707 184.355 271.354C185.815 272.002 210.377 273.457 210.377 273.457L212.117 276.747C213.843 275.863 215.587 275.045 217.349 274.306L180.463 258.98V261.245C180.463 261.245 103.375 315.386 118.288 419.5C133.201 523.614 238.467 551.395 238.467 551.395C238.467 551.395 320.871 550.788 328.695 550.304C484.898 497.915 469.883 300.659 372.488 262.146L372.49 262.144Z" fill="#F6F6F6"/>
<path d="M209.941 277.906C209.902 277.928 209.862 277.949 209.823 277.971C209.862 277.949 209.902 277.928 209.941 277.906Z" fill="#FDFDFD"/>
<path d="M205.499 280.545L205.393 280.613L205.499 280.545Z" fill="#FDFDFD"/>
<path d="M353.6 256.914C353.202 256.848 352.807 256.775 352.407 256.713L351.799 259.382C352.394 259.914 352.981 260.445 353.568 260.977C353.763 259.57 353.704 258.059 353.6 256.913V256.914Z" fill="#FDFDFD"/>
<path d="M372.49 262.144C373.194 263.144 373.829 264.139 374.195 264.929C375.173 267.041 369.483 272.328 367.355 274.203C369.201 276.085 370.993 277.961 372.733 279.833C375.267 276.952 379.798 271.865 381.102 270.833C382.941 269.377 394.061 281.59 395.399 281.994C396.737 282.398 396.904 285.391 396.067 286.685C395.354 287.789 388.925 294.598 387.05 296.576C388.61 298.574 390.113 300.565 391.559 302.549C394.443 300.218 399.295 296.254 399.941 295.439C400.868 294.269 403.624 292.137 404.41 293.564C405.197 294.99 413.848 304.525 415.838 307.685C417.459 310.257 406.544 316.754 402.431 319.08C403.751 321.326 405.002 323.562 406.183 325.786C409.153 323.906 413.869 320.986 416.753 319.521C421.212 317.257 421.484 319.521 421.484 319.521C421.484 319.521 427.21 332.38 429.643 335.939C431.722 338.983 418.574 342.615 414.364 343.705C415.257 346.037 416.078 348.355 416.828 350.658C419.97 349.946 427.209 348.243 428.346 347.424C429.805 346.372 432.48 346.453 433.128 349.445C433.777 352.438 436.452 361.82 437.344 364.326C438.236 366.834 437.993 367.804 435.156 368.289C432.994 368.659 425.478 369.966 421.728 370.747C422.115 373.136 422.431 375.505 422.677 377.852C425.865 377.565 433.165 376.942 436.534 376.942C437.709 376.744 439.371 376.929 439.412 380.349C439.452 383.769 439.938 394.074 439.938 396.515C439.938 399.064 428.366 399.203 423.061 399.068C422.92 401.131 422.728 403.174 422.487 405.195C426.369 405.566 434.776 406.414 437.425 407.029C440.911 407.838 436.533 421.829 435.804 426.601C435.196 430.573 422.63 426.589 418.435 425.142C417.819 427.277 417.151 429.381 416.437 431.455C421.392 433.226 430.747 436.652 432.192 437.761C434.171 439.28 427.369 451.687 426.175 456.1C425.212 459.657 412.767 453.496 407.972 450.97C406.884 453.035 405.756 455.057 404.591 457.034C409.429 459.365 418.464 463.742 420.401 464.855C423.076 466.392 412.214 481.758 410.43 484.023C408.982 485.861 397.917 476.879 393.545 473.304C393.408 473.48 393.272 473.658 393.135 473.832C391.885 475.431 390.618 476.973 389.341 478.466C392.185 482.34 399.758 488.133 402.729 490.089C406.539 492.596 393.164 506.264 389.678 507.396C389.342 504.378 378.202 496.196 374.402 493.486C373.032 494.671 371.673 495.799 370.329 496.879C372.602 500.1 380.137 510.743 381.836 512.694C383.842 515 367.015 524.765 365.237 526.039C362.518 525.271 354.994 512.842 352.71 508.978C350.796 510.088 349.026 511.05 347.435 511.874L357.09 530.346L338.303 538.959C338.303 538.959 328.939 519.548 329 519.245L328.408 515.65L227.827 513.737L245.652 521.271C245.652 521.271 237.948 542.522 237.293 544.065C236.638 545.609 217.664 537.11 217.664 537.11C215.863 536.486 219.516 530.504 222.128 524.372C223.998 519.983 225.2 515.476 225.641 513.696L223.997 513.664C223.091 513.181 222.194 512.692 221.306 512.199C219.082 516.505 211.831 530.199 208.916 531.481C205.489 531.877 195.965 524.865 192.251 522.417C191.074 521.641 192.368 518.93 193.862 515.72C196.44 510.181 201.015 502.936 202.741 500.263C201.942 499.669 201.153 499.071 200.375 498.468L199.749 499.367C199.749 499.367 183.99 514.709 181.639 513.715C179.287 512.721 173.205 505.276 170.996 503.947C168.787 502.618 166.259 501.417 169.039 497.982C171.274 495.22 180.127 486.502 183.521 483.181C182.602 482.199 181.699 481.21 180.82 480.213C180.928 480.41 180.991 480.527 180.991 480.527C180.991 480.527 161.848 492.834 159.945 492.029C156.747 487.121 153.152 482.834 150.48 477.62C147.808 472.406 167.483 463.195 167.483 463.195C167.738 463.226 168.009 463.317 168.292 463.45C167.351 461.949 166.448 460.435 165.581 458.912C165.52 459.234 165.394 459.469 165.173 459.574L143.745 466.737C143.745 466.737 136.107 450.202 134.794 449.251C136.075 446.235 137.622 445.703 137.622 445.703C137.622 445.703 150.249 441.158 154.52 437.597C154.937 437.534 155.71 438.293 156.658 439.552C155.619 436.67 154.688 433.769 153.868 430.852C147.07 437.257 130.729 437.479 130.729 437.479L127.811 418.432C127.556 416.909 133.791 417.125 139.796 415.575C144.183 414.443 148.439 412.133 149.959 411.258C149.795 409.907 149.652 408.556 149.529 407.204C145.106 407.44 127.718 408.362 126.252 408.362C124.573 408.362 125.014 387.617 125.014 387.617C124.887 385.719 131.833 386.742 138.512 386.749C142.891 386.754 147.143 386.206 149.223 385.891C149.317 384.342 149.437 382.798 149.58 381.257C144.929 380.912 129.144 379.589 126.798 377.385C125.096 374.393 127.852 362.909 128.662 358.541C128.919 357.157 131.926 357.289 135.472 357.409C141.616 357.617 150.136 359.005 153.243 359.542C153.479 358.581 153.719 357.624 153.973 356.669L152.861 356.438C152.861 356.438 132.553 347.945 132.553 345.398C132.553 342.851 137.053 334.358 137.418 331.811C137.783 329.264 137.905 326.473 142.16 327.686C145.571 328.658 157.019 333.368 161.434 335.201C161.922 334.077 162.42 332.962 162.931 331.857C162.922 331.85 144.105 319.072 144.105 317.01C147.389 312.157 149.943 307.184 153.712 302.695C157.482 298.206 173.659 312.686 173.659 312.686V312.69C174.458 311.492 175.274 310.313 176.104 309.153L176.1 309.151L161.13 292.262C161.13 292.262 173.412 278.796 173.776 277.218C177.06 277.218 178.154 278.431 178.154 278.431C178.154 278.431 187.274 288.258 192.228 290.792V290.795C193.095 290 193.971 289.223 194.856 288.465C191.868 284.859 181.113 271.789 181.113 270.465C181.113 268.926 181.924 269.898 183.139 269.089C184.355 268.281 182.896 270.707 184.355 271.354C185.815 272.002 210.377 273.457 210.377 273.457L212.117 276.747C213.843 275.863 215.587 275.045 217.349 274.306L180.463 258.98V261.245C180.463 261.245 103.375 315.386 118.288 419.5C133.201 523.614 238.467 551.395 238.467 551.395C238.467 551.395 320.871 550.788 328.695 550.304C484.898 497.915 469.883 300.659 372.488 262.146L372.49 262.144Z" fill="#F6F6F6"/>
<path d="M209.941 277.906C209.902 277.928 209.862 277.949 209.823 277.971C209.862 277.949 209.902 277.928 209.941 277.906Z" fill="#FDFDFD"/>
<path d="M218.829 236.942C218.829 240.961 215.181 244.219 210.682 244.219C206.183 244.219 202.535 240.961 202.535 236.942C202.535 235.212 203.211 233.622 204.34 232.373C206.608 232.542 212.749 233.3 218.085 233.899C218.563 234.825 218.83 235.856 218.83 236.942H218.829Z" fill="#7D170F"/>
<path d="M372.187 364.767C372.187 318.637 331.197 281.705 281.635 281.705C232.072 281.705 191.893 319.102 191.893 365.232L190.899 373.287C190.899 373.287 197.892 428.66 196.256 431.235C193.766 433.217 177.787 444.189 184.759 457.292C184.759 457.292 186.364 461.27 187.851 467.112C190.393 477.103 195.424 491.132 211.998 489.805C211.998 489.805 220.915 487.378 223.833 489.158C223.833 491.423 224.157 512.774 224.157 512.774C224.157 512.774 230.304 521.121 234.348 535.419C235.711 540.236 238.141 544.426 238.263 550.948C238.263 550.948 224.968 549.978 224.319 547.39C224.481 549.978 224.17 594.785 278.56 599.152C332.95 603.52 337.814 547.228 337.814 547.228L325.168 550.948C325.168 550.948 330.518 525.229 331.005 519.891C332.95 519.244 337.653 516.98 337.653 516.98C337.653 516.98 338.301 495.628 337.653 490.129C337.653 490.129 344.625 487.056 357.92 489.806C371.377 487.865 373.485 474.762 373.485 474.762C373.485 474.762 374.405 471.12 376.317 464.631C378.994 455.545 383.213 444.676 375.106 438.044C375.106 438.044 366.027 435.618 367.486 421.869C368.944 408.12 372.187 364.769 372.187 364.769L372.187 364.767Z" fill="white" stroke="#1D1D1B" stroke-width="0.25" stroke-miterlimit="10"/>
<path d="M281.635 281.706C276.281 281.706 271.038 282.144 265.943 282.98C265.902 283.03 251.436 300.858 250.14 318.303C253.302 318.303 275.61 314.502 278.278 315.148C280.945 315.794 292.092 317.129 292.011 318.464C291.93 319.799 280.459 342.444 280.459 342.444L280.621 356.881C280.621 356.881 308.386 314.096 308.021 311.427C306.481 309.365 288.038 301.56 284.796 301.439C281.553 301.318 274.338 302.328 274.338 302.328C274.338 302.328 287.855 284.474 287.591 281.89C285.62 281.772 283.635 281.705 281.634 281.705L281.635 281.706Z" fill="#7C170F"/>
<path d="M358.915 321.497L275.799 403.872L266.192 410.545C266.192 410.545 260.568 398.626 237.495 398.292C214.421 397.959 209.162 420.705 209.162 420.705C209.162 420.705 197.631 418.646 195.766 416.946L195.767 416.97C196.026 419.902 196.233 422.562 196.361 424.774L196.362 424.794C196.362 424.794 206.577 427.923 207.823 427.772C209.069 427.62 200.283 456.039 226.671 467.321C237.25 468.292 236.886 467.685 238.466 467.321C240.046 466.958 269.839 447.547 270.447 435.9C271.055 424.254 268.501 417.338 268.501 417.338L280.54 409.453L362.678 327.721C361.516 325.593 360.263 323.515 358.914 321.496L358.915 321.497Z" fill="#7D170F"/>
<path d="M291.201 426.477L338.544 403.831C338.544 403.831 339.436 402.538 342.03 404.882C353.137 415.639 364.081 453.814 333.518 465.784L322.307 466.188C322.307 466.188 295.173 450.303 291.201 434.831V426.477V426.477Z" fill="#7D170F"/>
<path d="M280.904 496.032C280.904 496.032 277.742 509.296 268.501 504.606C255.774 496.518 264.623 482.612 264.623 482.612L264.853 482.203C264.853 482.203 272.575 474.377 273.406 468.616C274.237 462.854 277.357 457.6 278.278 457.535C281.959 456.403 281.148 456.949 283.702 457.312C284.781 457.466 287.451 463.259 289.468 469.324C291.484 475.388 289.751 474.752 294.372 479.301C298.994 483.85 301.402 489.034 300.483 495.102C299.727 500.097 294.647 505.61 291.545 505.61C284.675 505.61 280.904 496.032 280.904 496.032Z" fill="#7D170F"/>
<path d="M325.25 454.461C335.01 454.461 342.923 446.567 342.923 436.83C342.923 427.092 335.01 419.198 325.25 419.198C315.489 419.198 307.577 427.092 307.577 436.83C307.577 446.567 315.489 454.461 325.25 454.461Z" fill="#FAFAFA"/>
<path d="M325.25 447.829C331.339 447.829 336.275 442.905 336.275 436.83C336.275 430.755 331.339 425.831 325.25 425.831C319.162 425.831 314.226 430.755 314.226 436.83C314.226 442.905 319.162 447.829 325.25 447.829Z" fill="#7D170F"/>
<path d="M325.249 441.925C328.07 441.925 330.356 439.644 330.356 436.83C330.356 434.016 328.07 431.734 325.249 431.734C322.428 431.734 320.142 434.016 320.142 436.83C320.142 439.644 322.428 441.925 325.249 441.925Z" fill="#FEFEFE"/>
<path d="M329.545 515.059C328.45 521.489 320.607 530.466 320.607 530.466L321.093 519.123C321.093 519.123 321.641 509.296 317.871 508.993C314.102 508.69 314.588 515.822 314.588 515.822C314.588 515.822 314.831 532.832 314.831 534.894C312.217 537.442 303.522 539.929 303.522 539.929C303.522 539.929 303.522 525.856 303.947 524.219C304.373 522.581 305.771 515.822 301.211 515.822C296.651 515.822 297.502 521.973 297.502 521.973C297.502 521.973 298.475 538.169 298.9 540.11C297.137 541.748 284.004 542.487 284.004 542.487L285.038 524.885C285.038 524.885 285.525 519.729 282.12 519.729C278.715 519.729 278.56 524.946 278.56 524.946C278.56 524.946 279.323 539.929 279.809 542.294C276.222 543.205 264.305 540.596 264.305 540.596C264.305 540.596 264.974 529.374 265.278 526.523C265.582 523.672 267.466 516.09 262.238 515.847C257.009 515.605 259.137 529.678 259.137 529.678C259.137 529.678 259.928 535.016 260.232 539.747C258.104 539.989 248.071 534.712 248.071 534.712V530.466C248.071 530.466 250.26 508.993 246.308 508.75C242.356 508.507 242.721 519.305 242.721 519.305L243.208 530.891C243.208 530.891 233.804 522.641 234.614 506.789C236.317 493.444 223.833 489.158 223.833 489.158L223.983 501.044V501.051C235.02 504.202 232.054 507.274 232.75 516.657C232.669 525.149 233.382 532.233 233.382 532.233V532.239C233.714 533.265 234.038 534.323 234.348 535.42C235.71 540.237 238.14 544.427 238.262 550.949C238.262 550.949 236.27 550.803 233.791 550.475C233.779 555.581 247.261 564.698 248.639 564.132C250.018 563.566 249.369 555.559 248.72 547.471C249.369 550.14 260.313 550.383 260.313 550.383C260.313 550.383 257.394 573.433 262.664 573.757C267.933 574.081 265.501 554.346 264.528 551.758C265.42 550.869 281.419 553.133 281.419 553.133C281.419 553.133 278.147 575.941 283.336 575.294C288.524 574.647 284.511 553.093 284.511 553.093C287.389 551.921 298.819 551.516 298.819 551.516V558.795C298.819 560.655 295.738 572.948 301.089 572.948C306.441 572.948 304.399 567.898 304.17 564.294C303.942 560.691 304.008 553.537 303.441 550.464C305.467 551.03 314.952 547.633 314.952 547.633C314.952 547.633 314.952 561.948 315.033 563.809C319.959 561.242 323.305 555.644 325.551 549.091C326.3 545.448 328.002 537.1 329.314 530.102C329.939 523.291 329.843 517.504 329.545 515.059Z" fill="#7D170F"/>
<path d="M210.297 657.203C205.63 656.62 201.164 654.979 196.898 652.281C192.633 649.547 189.333 645.372 187 639.758C187.219 640.268 188.768 641.253 191.648 642.711C194.529 644.133 197.974 645.099 201.984 645.609C203.479 645.828 208.036 646.083 215.656 646.375C223.276 646.63 228.945 647.633 232.664 649.383C236.31 651.169 239.573 655.654 242.453 662.836C239.792 660.43 232.646 658.734 221.016 657.75H219.375C218.5 660.703 218.062 664.148 218.062 668.086C218.062 669.143 218.099 670.237 218.172 671.367L218.773 678.422L218.992 679.188V679.352C219.648 679.315 220.305 679.297 220.961 679.297C226.612 679.297 231.88 680.992 236.766 684.383L225.883 690.07C224.096 687.628 222.036 686.133 219.703 685.586C219.958 687.846 220.086 689.961 220.086 691.93C220.086 699.44 218.336 704.982 214.836 708.555C210.388 713.076 206.359 715.609 202.75 716.156C203.917 715.828 205.029 714.971 206.086 713.586C206.997 712.419 207.672 710.979 208.109 709.266C208.438 707.917 208.602 706.44 208.602 704.836C208.602 703.924 208.547 702.958 208.438 701.938L205.812 685.641H205.211C203.06 685.641 199.742 685.987 195.258 686.68C199.195 684.383 202.513 682.706 205.211 681.648C204.773 679.497 204.555 677.383 204.555 675.305C204.555 674.32 204.609 673.354 204.719 672.406C205.302 666.755 207.161 661.688 210.297 657.203ZM259.078 676.398C259.078 674.831 258.021 673.445 255.906 672.242C252.406 674.831 250.656 677.602 250.656 680.555V700.188C250.656 701.755 251.714 703.141 253.828 704.344L259.023 700.516L259.078 676.398ZM268.977 699.914C268.977 700.789 269.195 701.628 269.633 702.43C269.961 703.086 270.398 703.724 270.945 704.344C271.638 705.036 272.312 705.583 272.969 705.984L264.82 712C263.471 711.234 262.323 710.068 261.375 708.5C260.682 707.333 260.099 705.984 259.625 704.453L249.453 712C244.531 710.068 241.688 706.878 240.922 702.43H240.867C240.721 701.701 240.63 700.862 240.594 699.914H240.648V681.211C240.648 679.279 241.669 677.219 243.711 675.031C245.315 673.281 247.557 671.513 250.438 669.727C253.719 667.648 256.982 665.935 260.227 664.586C263.435 665.826 265.768 667.63 267.227 670C268.393 671.896 268.977 674.065 268.977 676.508V699.914ZM284.891 690.945C285.219 693.497 286.24 695.94 287.953 698.273C290.688 701.992 294.552 703.852 299.547 703.852C300.786 703.852 302.099 703.742 303.484 703.523L292.328 712C291.854 711.964 291.362 711.909 290.852 711.836C290.195 711.727 289.539 711.581 288.883 711.398C287.133 710.888 285.529 710.122 284.07 709.102C279.914 706.185 277.271 701.445 276.141 694.883C275.776 692.914 275.594 690.909 275.594 688.867C275.594 686.424 275.849 683.927 276.359 681.375C277.198 677.219 278.711 673.737 280.898 670.93C283.669 667.43 287.424 665.06 292.164 663.82L299 673.281L291.945 678.641L286.477 671.148C284.836 673.956 284.016 677.583 284.016 682.031C284.016 684.729 284.307 687.701 284.891 690.945ZM318.852 698.93C318.852 701.008 319.508 702.794 320.82 704.289C321.477 705.055 322.133 705.62 322.789 705.984L314.641 712L314.586 711.945H314.531L314.422 711.891L314.148 711.727L313.766 711.508C313.438 711.289 313.128 711.07 312.836 710.852C312.471 710.56 312.125 710.25 311.797 709.922C310.922 709.12 310.247 708.227 309.773 707.242C309.154 706.039 308.844 704.745 308.844 703.359V677.82C308.844 675.742 308.188 673.956 306.875 672.461C306.219 671.695 305.562 671.13 304.906 670.766L313 664.75H313.055L313.164 664.805L313.273 664.859L313.547 665.023L313.93 665.242C314.221 665.424 314.531 665.643 314.859 665.898C315.224 666.19 315.57 666.482 315.898 666.773C316.773 667.612 317.448 668.505 317.922 669.453C318.542 670.693 318.852 672.005 318.852 673.391V698.93ZM313.438 651.57C313.729 652.044 314.076 652.5 314.477 652.938C315.023 653.521 315.607 654.013 316.227 654.414C317.393 655.107 318.669 655.453 320.055 655.453C320.82 655.453 321.622 655.344 322.461 655.125C321.258 657.531 319.654 659.427 317.648 660.812C316.154 661.833 314.659 662.344 313.164 662.344C310.539 662.344 307.896 660.776 305.234 657.641L313.438 651.57ZM343.352 683.891C348.383 686.771 351.117 689.615 351.555 692.422C351.846 694.099 351.992 695.612 351.992 696.961C351.992 697.544 351.956 698.109 351.883 698.656C351.591 700.953 350.771 702.794 349.422 704.18C349.203 704.362 346.268 706.586 340.617 710.852C339.56 711.617 338.393 712 337.117 712C335.513 712 333.708 711.38 331.703 710.141C328.167 707.99 326.253 705.365 325.961 702.266L333.562 696.633C333.818 697.544 334.255 698.456 334.875 699.367C336.552 701.773 338.521 703.268 340.781 703.852C341.182 703.961 341.547 704.016 341.875 704.016C342.896 704.016 343.643 703.578 344.117 702.703C344.227 702.521 344.318 702.247 344.391 701.883L344.445 701.5V701.117C344.482 700.898 344.5 700.68 344.5 700.461C344.5 700.133 344.464 699.823 344.391 699.531C343.734 696.25 341.401 693.607 337.391 691.602C333.38 689.56 330.828 688.138 329.734 687.336C326.964 685.221 325.578 682.76 325.578 679.953V679.352C325.76 676.763 326.745 674.612 328.531 672.898L329.078 672.406L339.633 664.531C339.961 664.495 340.307 664.477 340.672 664.477C342.896 664.477 345.12 665.279 347.344 666.883C349.859 668.669 351.573 670.784 352.484 673.227L344.664 679.078C344.664 678.932 344.117 678.148 343.023 676.727C341.82 675.268 340.708 674.247 339.688 673.664C338.812 673.081 337.664 672.716 336.242 672.57H336.023C335.622 672.57 335.312 672.643 335.094 672.789L334.984 672.898C334.219 673.482 333.836 674.284 333.836 675.305V675.414C333.872 675.779 333.964 676.18 334.109 676.617C334.219 676.909 334.365 677.219 334.547 677.547C335.422 678.859 338.357 680.974 343.352 683.891ZM369.602 669.727V698.93C369.602 701.008 370.258 702.794 371.57 704.289C372.227 705.055 372.883 705.62 373.539 705.984L365.445 712L365.391 711.945H365.281L365.172 711.891L364.898 711.727L364.516 711.508C364.224 711.289 363.914 711.07 363.586 710.852C363.221 710.56 362.875 710.25 362.547 709.922C361.672 709.12 360.997 708.227 360.523 707.242C359.904 706.039 359.594 704.745 359.594 703.359V669.727H355.547L357.734 664.586H359.648C359.648 662.253 359.43 660.594 358.992 659.609C358.664 658.844 358.208 658.115 357.625 657.422C356.969 656.693 356.312 656.146 355.656 655.781L363.805 649.766H363.859L363.914 649.82L364.023 649.875L364.297 650.039L364.68 650.258C365.008 650.44 365.318 650.659 365.609 650.914C365.974 651.169 366.339 651.461 366.703 651.789C367.542 652.628 368.198 653.521 368.672 654.469C369.292 655.708 369.602 657.021 369.602 658.406V664.586H374.25L372.062 669.727H369.602Z" fill="white"/>
<path d="M148.72 90.1104V104.611C149.345 104.369 149.961 104.248 150.566 104.248C151.515 104.248 152.433 104.551 153.321 105.156V90.292C153.321 89.4242 152.746 88.6471 151.596 87.9609L148.72 90.1104ZM148.72 113.391C148.72 114.016 148.831 114.602 149.053 115.146C149.234 115.59 149.487 115.994 149.81 116.357C150.173 116.781 150.536 117.094 150.899 117.296L146.389 120.626L146.358 120.596H146.328L146.268 120.565L146.116 120.475L145.904 120.354C145.723 120.232 145.551 120.111 145.39 119.99C145.188 119.829 144.996 119.657 144.814 119.476C144.33 119.032 143.957 118.537 143.694 117.992C143.351 117.326 143.18 116.61 143.18 115.843V90.9883C143.18 90.3626 143.069 89.7673 142.847 89.2021C142.665 88.7783 142.413 88.3747 142.09 87.9912C141.727 87.5876 141.363 87.2848 141 87.083L145.48 83.7529H145.511L145.602 83.8135L145.723 83.874L145.904 83.9648C146.066 84.0658 146.217 84.1667 146.358 84.2676C146.54 84.4089 146.712 84.5501 146.873 84.6914C147.317 85.0749 147.68 85.4886 147.963 85.9326C148.306 86.4775 148.538 87.0729 148.659 87.7188L153.987 83.7529C156.712 84.8226 158.296 86.5885 158.74 89.0508L158.771 103.945L150.688 110.03C150.365 109.506 149.709 108.961 148.72 108.396V113.391ZM172.787 90.292C172.787 89.4242 172.202 88.6572 171.031 87.9912C169.094 89.4242 168.125 90.958 168.125 92.5928V103.461C168.125 104.329 168.71 105.096 169.881 105.762L172.757 103.643L172.787 90.292ZM178.267 103.31C178.267 103.794 178.388 104.258 178.63 104.702C178.812 105.065 179.054 105.419 179.356 105.762C179.74 106.145 180.113 106.448 180.477 106.67L175.966 110C175.219 109.576 174.583 108.93 174.059 108.062C173.675 107.417 173.352 106.67 173.09 105.822L167.459 110C164.734 108.93 163.16 107.164 162.736 104.702H162.706C162.625 104.299 162.575 103.834 162.555 103.31H162.585V92.9561C162.585 91.8864 163.15 90.7461 164.28 89.5352C165.168 88.5664 166.41 87.5876 168.004 86.5986C169.82 85.4482 171.627 84.4997 173.423 83.7529C175.199 84.4391 176.491 85.4382 177.298 86.75C177.944 87.7995 178.267 89.0003 178.267 90.3525V103.31ZM194.312 83.7529C196.108 84.4593 197.41 85.4785 198.217 86.8105L193.646 90.2012C193.605 89.3737 193.03 88.637 191.92 87.9912L188.983 90.1406V102.704C188.983 103.33 189.094 103.925 189.316 104.49C189.498 104.934 189.75 105.338 190.073 105.701C190.437 106.145 190.8 106.468 191.163 106.67L186.652 110L186.622 109.97H186.592L186.531 109.939L186.38 109.849L186.168 109.728C185.986 109.606 185.815 109.485 185.653 109.364C185.451 109.203 185.25 109.031 185.048 108.85C184.584 108.406 184.22 107.911 183.958 107.366C183.615 106.7 183.443 105.984 183.443 105.217V91.0791C183.443 89.9287 183.08 88.9398 182.354 88.1123C181.99 87.6885 181.627 87.3757 181.264 87.1738L185.744 83.8438H185.774L185.865 83.9043L185.986 83.9648L186.168 84.0557C186.309 84.1566 186.461 84.2575 186.622 84.3584C186.804 84.4997 186.975 84.641 187.137 84.7822C187.561 85.1455 187.914 85.5492 188.196 85.9932C188.56 86.5381 188.792 87.1234 188.893 87.749L194.312 83.7529ZM205.876 86.5986V102.765C205.876 103.915 206.239 104.904 206.966 105.731C207.329 106.155 207.692 106.468 208.056 106.67L203.575 110L203.545 109.97H203.484L203.424 109.939L203.272 109.849L203.061 109.728C202.899 109.606 202.728 109.485 202.546 109.364C202.344 109.203 202.152 109.031 201.971 108.85C201.486 108.406 201.113 107.911 200.851 107.366C200.507 106.7 200.336 105.984 200.336 105.217V86.5986H198.096L199.307 83.7529H200.366C200.366 82.4613 200.245 81.543 200.003 80.998C199.821 80.5742 199.569 80.1706 199.246 79.7871C198.883 79.3835 198.52 79.0807 198.156 78.8789L202.667 75.5488H202.697L202.728 75.5791L202.788 75.6094L202.939 75.7002L203.151 75.8213C203.333 75.9222 203.505 76.0433 203.666 76.1846C203.868 76.3258 204.07 76.4873 204.271 76.6689C204.736 77.1331 205.099 77.6276 205.361 78.1523C205.704 78.8385 205.876 79.5651 205.876 80.332V83.7529H208.449L207.238 86.5986H205.876ZM223.919 83.7529L223.949 83.7832H223.979L224.04 83.8135L224.191 83.9043L224.403 84.0254C224.585 84.1465 224.757 84.2676 224.918 84.3887C225.14 84.5501 225.342 84.7217 225.523 84.9033C225.988 85.3473 226.361 85.8418 226.644 86.3867C226.987 87.0527 227.158 87.7692 227.158 88.5361V107.608C227.138 110.918 226.502 113.613 225.251 115.691C225.09 115.934 224.948 116.146 224.827 116.327C224.646 116.63 224.454 116.902 224.252 117.145C223.747 117.831 223.213 118.406 222.647 118.87C221.336 120 219.903 120.565 218.349 120.565C218.046 120.565 217.743 120.545 217.44 120.505C215.846 120.283 214.494 119.506 213.384 118.174C212.637 117.286 212.264 116.388 212.264 115.479C212.264 114.894 212.425 114.299 212.748 113.693C213.273 112.704 214.07 112.2 215.14 112.18C215.483 112.18 215.826 112.23 216.169 112.331C216.29 112.351 216.401 112.382 216.502 112.422L216.593 112.482H216.623C215.876 112.947 215.463 113.522 215.382 114.208V114.42C215.382 114.945 215.584 115.409 215.987 115.812C216.451 116.257 217.007 116.479 217.652 116.479H217.804C218.611 116.438 219.378 116.045 220.104 115.298C221.114 114.269 221.618 113.048 221.618 111.635V106.034L216.26 110C214.504 109.314 213.212 108.315 212.385 107.003C211.739 105.953 211.416 104.753 211.416 103.4V90.4434C211.416 89.959 211.305 89.4948 211.083 89.0508C210.901 88.6875 210.649 88.3343 210.326 87.9912C209.963 87.6077 209.6 87.3151 209.236 87.1133L213.747 83.7529C214.373 84.1364 214.928 84.6611 215.412 85.3271C215.796 85.8923 216.118 86.528 216.381 87.2344C216.684 88.0618 216.875 89.0609 216.956 90.2314L216.926 103.461C216.926 104.329 217.511 105.106 218.682 105.792L221.618 103.582V90.9883C221.618 89.8581 221.255 88.8691 220.528 88.0215C220.165 87.5977 219.792 87.2949 219.408 87.1133L223.919 83.7529ZM252.194 102.765C252.194 104.5 252.911 105.802 254.344 106.67L249.863 110L249.833 109.97H249.803C247.724 108.396 246.685 106.408 246.685 104.006V90.292C246.685 89.4242 246.109 88.6572 244.959 87.9912L242.022 90.1406V102.765C242.022 104.5 242.739 105.802 244.172 106.67L239.691 110L239.661 109.97H239.631C237.532 108.396 236.482 106.408 236.482 104.006V91.0791C236.482 89.9287 236.119 88.9398 235.393 88.1123C235.029 87.6885 234.666 87.3757 234.303 87.1738L238.783 83.8438H238.813L238.904 83.9043L239.025 83.9648L239.207 84.0557C239.348 84.1566 239.5 84.2575 239.661 84.3584C239.843 84.4997 240.014 84.641 240.176 84.7822C240.6 85.1455 240.953 85.5492 241.235 85.9932C241.599 86.5381 241.831 87.1234 241.932 87.749L247.351 83.7529C249.631 84.641 251.115 86.0537 251.801 87.9912L257.492 83.7529C259.268 84.4391 260.56 85.4382 261.367 86.75C262.013 87.7995 262.336 89.0003 262.336 90.3525V102.765C262.336 104.5 263.062 105.802 264.516 106.67L260.035 110L260.005 109.97H259.975C257.876 108.396 256.826 106.408 256.826 104.006V90.292C256.826 89.4242 256.251 88.6572 255.101 87.9912L252.194 90.1406V102.765ZM271.993 87.2949C271.085 88.849 270.631 90.8874 270.631 93.4102C270.631 94.5 270.722 95.6908 270.903 96.9824L276.11 92.9863L271.993 87.2949ZM271.297 99.2227C271.499 99.929 271.761 100.605 272.084 101.251C272.568 102.139 273.144 102.896 273.81 103.521C275.243 104.833 277.049 105.489 279.229 105.489C279.915 105.489 280.641 105.419 281.408 105.277L275.232 110C274.97 109.98 274.698 109.95 274.415 109.909C274.052 109.849 273.688 109.768 273.325 109.667C272.356 109.384 271.468 108.961 270.661 108.396C268.36 106.781 266.897 104.147 266.271 100.494C266.07 99.4043 265.969 98.2842 265.969 97.1338C265.969 95.7816 266.11 94.3991 266.393 92.9863C267.442 87.7389 270.358 84.4896 275.142 83.2383L281.196 91.624L281.045 91.7451L271.297 99.2227ZM289.885 102.765C289.885 104.5 290.611 105.802 292.064 106.67L287.584 110L287.554 109.97H287.523C285.424 108.396 284.375 106.408 284.375 104.006V91.0791C284.375 89.9287 284.012 88.9398 283.285 88.1123C282.922 87.6885 282.559 87.3757 282.195 87.1738L286.676 83.8438H286.706L286.797 83.9043L286.918 83.9648L287.1 84.0557C287.241 84.1566 287.392 84.2575 287.554 84.3584C287.735 84.4997 287.907 84.641 288.068 84.7822C288.492 85.1455 288.845 85.5492 289.128 85.9932C289.491 86.5381 289.743 87.1234 289.885 87.749L295.243 83.7529C297.019 84.4391 298.311 85.4382 299.118 86.75C299.764 87.7995 300.087 89.0003 300.087 90.3525V102.765C300.087 104.5 300.813 105.802 302.267 106.67L297.786 110L297.756 109.97H297.726C295.627 108.396 294.577 106.408 294.577 104.006V90.292C294.577 89.4443 294.002 88.6774 292.852 87.9912L289.885 90.1406V102.765ZM314.8 90.292C314.8 89.4242 314.225 88.6572 313.074 87.9912L310.107 90.1709V103.582L313.014 105.762C314.184 105.076 314.77 104.309 314.77 103.461L314.8 103.4V90.292ZM315.466 83.7529C317.242 84.4391 318.534 85.4382 319.341 86.75C319.987 87.7995 320.31 89.0003 320.31 90.3525V104.702H320.279C319.855 107.164 318.251 108.93 315.466 110L311.591 107.185L307.807 110L307.776 109.97H307.746L307.686 109.939L307.534 109.849L307.322 109.728C307.141 109.606 306.969 109.485 306.808 109.364C306.606 109.203 306.414 109.031 306.232 108.85C305.748 108.406 305.375 107.911 305.112 107.366C304.769 106.7 304.598 105.984 304.598 105.217V80.3623C304.598 79.7165 304.487 79.1211 304.265 78.5762C304.083 78.1523 303.831 77.7487 303.508 77.3652C303.145 76.9616 302.781 76.6589 302.418 76.457L306.929 73.127H306.959L306.989 73.1572L307.05 73.1875L307.201 73.2783L307.413 73.3994C307.595 73.5003 307.766 73.6214 307.928 73.7627C308.13 73.904 308.321 74.0654 308.503 74.2471C308.987 74.7113 309.361 75.2057 309.623 75.7305C309.966 76.4167 310.138 77.1432 310.138 77.9102V87.7188L315.466 83.7529ZM328.968 87.2949C328.06 88.849 327.605 90.8874 327.605 93.4102C327.605 94.5 327.696 95.6908 327.878 96.9824L333.085 92.9863L328.968 87.2949ZM328.271 99.2227C328.473 99.929 328.736 100.605 329.059 101.251C329.543 102.139 330.118 102.896 330.784 103.521C332.217 104.833 334.023 105.489 336.203 105.489C336.889 105.489 337.616 105.419 338.383 105.277L332.207 110C331.945 109.98 331.672 109.95 331.39 109.909C331.026 109.849 330.663 109.768 330.3 109.667C329.331 109.384 328.443 108.961 327.636 108.396C325.335 106.781 323.872 104.147 323.246 100.494C323.044 99.4043 322.943 98.2842 322.943 97.1338C322.943 95.7816 323.085 94.3991 323.367 92.9863C324.417 87.7389 327.333 84.4896 332.116 83.2383L338.171 91.624L338.02 91.7451L328.271 99.2227ZM352.218 83.7529C354.014 84.4593 355.316 85.4785 356.123 86.8105L351.552 90.2012C351.511 89.3737 350.936 88.637 349.826 87.9912L346.89 90.1406V102.704C346.89 103.33 347.001 103.925 347.223 104.49C347.404 104.934 347.657 105.338 347.979 105.701C348.343 106.145 348.706 106.468 349.069 106.67L344.559 110L344.528 109.97H344.498L344.438 109.939L344.286 109.849L344.074 109.728C343.893 109.606 343.721 109.485 343.56 109.364C343.358 109.203 343.156 109.031 342.954 108.85C342.49 108.406 342.127 107.911 341.864 107.366C341.521 106.7 341.35 105.984 341.35 105.217V91.0791C341.35 89.9287 340.986 88.9398 340.26 88.1123C339.896 87.6885 339.533 87.3757 339.17 87.1738L343.65 83.8438H343.681L343.771 83.9043L343.893 83.9648L344.074 84.0557C344.215 84.1566 344.367 84.2575 344.528 84.3584C344.71 84.4997 344.882 84.641 345.043 84.7822C345.467 85.1455 345.82 85.5492 346.103 85.9932C346.466 86.5381 346.698 87.1234 346.799 87.749L352.218 83.7529ZM365.417 94.4395C368.202 96.0339 369.716 97.6081 369.958 99.1621C370.119 100.09 370.2 100.928 370.2 101.675C370.2 101.998 370.18 102.311 370.14 102.613C369.978 103.885 369.524 104.904 368.777 105.671C368.656 105.772 367.032 107.003 363.903 109.364C363.318 109.788 362.672 110 361.966 110C361.078 110 360.079 109.657 358.969 108.971C357.011 107.78 355.951 106.327 355.79 104.611L359.998 101.493C360.139 101.998 360.382 102.502 360.725 103.007C361.653 104.339 362.743 105.166 363.994 105.489C364.216 105.55 364.418 105.58 364.6 105.58C365.165 105.58 365.578 105.338 365.841 104.854C365.901 104.753 365.952 104.601 365.992 104.399L366.022 104.188V103.976C366.043 103.854 366.053 103.733 366.053 103.612C366.053 103.431 366.033 103.259 365.992 103.098C365.629 101.281 364.337 99.818 362.117 98.708C359.897 97.5778 358.484 96.7907 357.879 96.3467C356.345 95.1761 355.578 93.8138 355.578 92.2598V91.9268C355.679 90.4938 356.224 89.3031 357.213 88.3545L357.516 88.082L363.358 83.7227C363.54 83.7025 363.732 83.6924 363.934 83.6924C365.165 83.6924 366.396 84.1364 367.627 85.0244C369.02 86.0133 369.968 87.1839 370.473 88.5361L366.144 91.7754C366.144 91.6947 365.841 91.2607 365.235 90.4736C364.569 89.6663 363.954 89.1012 363.389 88.7783C362.904 88.4554 362.269 88.2536 361.481 88.1729H361.36C361.138 88.1729 360.967 88.2132 360.846 88.2939L360.785 88.3545C360.361 88.6774 360.149 89.1214 360.149 89.6865V89.7471C360.17 89.9489 360.22 90.1709 360.301 90.4131C360.361 90.5745 360.442 90.7461 360.543 90.9277C361.027 91.6543 362.652 92.8249 365.417 94.4395ZM390.09 102.765C390.09 104.5 390.816 105.802 392.27 106.67L387.789 110L387.759 109.97H387.729C385.63 108.396 384.58 106.408 384.58 104.006V90.292C384.58 89.4242 383.995 88.6572 382.824 87.9912L379.888 90.1406V102.765C379.888 104.5 380.604 105.802 382.037 106.67L377.557 110L377.526 109.97H377.496C375.397 108.396 374.348 106.408 374.348 104.006V80.3623C374.348 79.7165 374.237 79.1211 374.015 78.5762C373.833 78.1523 373.581 77.7487 373.258 77.3652C372.895 76.9616 372.531 76.6589 372.168 76.457L376.648 73.127H376.709L376.739 73.1572L376.8 73.1875L376.951 73.2783L377.163 73.3994C377.325 73.5003 377.496 73.6214 377.678 73.7627C377.88 73.904 378.071 74.0654 378.253 74.2471C378.737 74.7113 379.111 75.2057 379.373 75.7305C379.716 76.4167 379.888 77.1432 379.888 77.9102V87.7188L385.216 83.7529C386.992 84.4391 388.284 85.4382 389.091 86.75C389.737 87.7995 390.06 89.0003 390.06 90.3525L390.09 102.765ZM400.776 102.765C400.776 103.915 401.14 104.904 401.866 105.731C402.229 106.155 402.593 106.468 402.956 106.67L398.445 110L398.415 109.97H398.385L398.324 109.939L398.173 109.849L397.961 109.728C397.779 109.606 397.608 109.485 397.446 109.364C397.244 109.203 397.053 109.031 396.871 108.85C396.387 108.406 396.013 107.911 395.751 107.366C395.408 106.7 395.236 105.984 395.236 105.217V91.0791C395.236 89.9287 394.873 88.9398 394.146 88.1123C393.783 87.6885 393.42 87.3757 393.057 87.1738L397.537 83.8438H397.567L397.628 83.874L397.688 83.9043L397.84 83.9951L398.052 84.1162C398.213 84.2171 398.385 84.3382 398.566 84.4795C398.768 84.641 398.96 84.8024 399.142 84.9639C399.626 85.4281 399.999 85.9225 400.262 86.4473C400.605 87.1335 400.776 87.86 400.776 88.627V102.765ZM397.779 76.5479C397.941 76.8102 398.132 77.0625 398.354 77.3047C398.657 77.6276 398.98 77.9001 399.323 78.1221C399.969 78.5055 400.675 78.6973 401.442 78.6973C401.866 78.6973 402.31 78.6367 402.774 78.5156C402.108 79.8477 401.22 80.8971 400.11 81.6641C399.283 82.2292 398.455 82.5117 397.628 82.5117C396.175 82.5117 394.712 81.6439 393.238 79.9082L397.779 76.5479ZM411.433 90.1104V104.611C412.058 104.369 412.674 104.248 413.279 104.248C414.228 104.248 415.146 104.551 416.034 105.156V90.292C416.034 89.4242 415.459 88.6471 414.309 87.9609L411.433 90.1104ZM411.433 113.391C411.433 114.016 411.544 114.602 411.766 115.146C411.947 115.59 412.2 115.994 412.522 116.357C412.886 116.781 413.249 117.094 413.612 117.296L409.102 120.626L409.071 120.596H409.041L408.98 120.565L408.829 120.475L408.617 120.354C408.436 120.232 408.264 120.111 408.103 119.99C407.901 119.829 407.709 119.657 407.527 119.476C407.043 119.032 406.67 118.537 406.407 117.992C406.064 117.326 405.893 116.61 405.893 115.843V90.9883C405.893 90.3626 405.782 89.7673 405.56 89.2021C405.378 88.7783 405.126 88.3747 404.803 87.9912C404.439 87.5876 404.076 87.2848 403.713 87.083L408.193 83.7529H408.224L408.314 83.8135L408.436 83.874L408.617 83.9648C408.779 84.0658 408.93 84.1667 409.071 84.2676C409.253 84.4089 409.424 84.5501 409.586 84.6914C410.03 85.0749 410.393 85.4886 410.676 85.9326C411.019 86.4775 411.251 87.0729 411.372 87.7188L416.7 83.7529C419.425 84.8226 421.009 86.5885 421.453 89.0508L421.483 103.945L413.4 110.03C413.077 109.506 412.422 108.961 411.433 108.396V113.391Z" fill="white"/>
<path d="M141 118.84H422.24V123.381H141V118.84Z" fill="white"/>
<mask id="path-26-inside-1_0_1" fill="white">
<rect x="15" y="22" width="533" height="764" rx="23"/>
</mask>
<rect x="15" y="22" width="533" height="764" rx="23" stroke="white" stroke-width="54" mask="url(#path-26-inside-1_0_1)"/>
</svg>