<svg width="563" height="808" viewBox="0 0 563 808" fill="none" xmlns="http://www.w3.org/2000/svg">
<rect width="563" height="808" rx="23" fill="#7AC6DE"/>
<path d="M185.922 705.82C191.536 704.69 195.893 704.125 198.992 704.125C206.284 704.161 213.339 706.039 220.156 709.758L208.344 718.344C204.698 714.625 198.044 712.766 188.383 712.766C184.19 712.766 179.396 713.13 174 713.859C178.484 709.156 180.727 702.375 180.727 693.516C180.727 687.828 179.815 681.302 177.992 673.938C177.773 672.516 177.664 671.076 177.664 669.617C177.664 666.372 178.174 663.055 179.195 659.664C182.148 649.747 188.984 643.896 199.703 642.109C200.76 641.49 201.909 641.18 203.148 641.18C204.898 641.18 206.849 641.781 209 642.984C212.755 645.062 215.581 648.38 217.477 652.938C217.951 654.068 218.188 655.216 218.188 656.383C218.188 657.878 217.805 659.409 217.039 660.977C215.945 663.237 211.862 666.992 204.789 672.242L204.461 672.461L204.188 672.625L203.969 672.734C207.104 669.234 208.672 665.88 208.672 662.672C208.672 659.719 207.341 656.893 204.68 654.195C201.945 651.424 198.336 649.747 193.852 649.164C193.305 649.055 192.74 648.964 192.156 648.891C190.698 651.807 189.969 655.927 189.969 661.25C189.969 662.891 190.042 664.641 190.188 666.5C191.318 680.026 191.883 687.883 191.883 690.07V690.289C191.737 695.466 189.75 700.643 185.922 705.82ZM235.523 698.93C235.523 701.008 236.18 702.794 237.492 704.289C238.148 705.055 238.805 705.62 239.461 705.984L231.312 712L231.258 711.945H231.203L231.094 711.891L230.82 711.727L230.438 711.508C230.109 711.289 229.799 711.07 229.508 710.852C229.143 710.56 228.797 710.25 228.469 709.922C227.594 709.12 226.919 708.227 226.445 707.242C225.826 706.039 225.516 704.745 225.516 703.359V677.82C225.516 675.742 224.859 673.956 223.547 672.461C222.891 671.695 222.234 671.13 221.578 670.766L229.672 664.75H229.727L229.836 664.805L229.945 664.859L230.219 665.023L230.602 665.242C230.893 665.424 231.203 665.643 231.531 665.898C231.896 666.19 232.242 666.482 232.57 666.773C233.445 667.612 234.12 668.505 234.594 669.453C235.214 670.693 235.523 672.005 235.523 673.391V698.93ZM230.109 651.57C230.401 652.044 230.747 652.5 231.148 652.938C231.695 653.521 232.279 654.013 232.898 654.414C234.065 655.107 235.341 655.453 236.727 655.453C237.492 655.453 238.294 655.344 239.133 655.125C237.93 657.531 236.326 659.427 234.32 660.812C232.826 661.833 231.331 662.344 229.836 662.344C227.211 662.344 224.568 660.776 221.906 657.641L230.109 651.57ZM263.195 676.398C263.195 674.831 262.156 673.445 260.078 672.242L254.719 676.18V700.406L259.969 704.344C262.083 703.104 263.141 701.719 263.141 700.188L263.195 700.078V676.398ZM264.398 664.586C267.607 665.826 269.94 667.63 271.398 670C272.565 671.896 273.148 674.065 273.148 676.508V702.43H273.094C272.328 706.878 269.43 710.068 264.398 712L257.398 706.914L250.562 712L250.508 711.945H250.453L250.344 711.891L250.07 711.727L249.688 711.508C249.359 711.289 249.049 711.07 248.758 710.852C248.393 710.56 248.047 710.25 247.719 709.922C246.844 709.12 246.169 708.227 245.695 707.242C245.076 706.039 244.766 704.745 244.766 703.359V658.461C244.766 657.294 244.565 656.219 244.164 655.234C243.836 654.469 243.38 653.74 242.797 653.047C242.141 652.318 241.484 651.771 240.828 651.406L248.977 645.391H249.031L249.086 645.445L249.195 645.5L249.469 645.664L249.852 645.883C250.18 646.065 250.49 646.284 250.781 646.539C251.146 646.794 251.492 647.086 251.82 647.414C252.695 648.253 253.37 649.146 253.844 650.094C254.464 651.333 254.773 652.646 254.773 654.031V671.75L264.398 664.586ZM288.789 670.984C287.148 673.792 286.328 677.474 286.328 682.031C286.328 684 286.492 686.151 286.82 688.484L296.227 681.266L288.789 670.984ZM287.531 692.531C287.896 693.807 288.37 695.029 288.953 696.195C289.828 697.799 290.867 699.167 292.07 700.297C294.659 702.667 297.922 703.852 301.859 703.852C303.099 703.852 304.411 703.724 305.797 703.469L294.641 712C294.167 711.964 293.674 711.909 293.164 711.836C292.508 711.727 291.852 711.581 291.195 711.398C289.445 710.888 287.841 710.122 286.383 709.102C282.227 706.185 279.583 701.427 278.453 694.828C278.089 692.859 277.906 690.836 277.906 688.758C277.906 686.315 278.161 683.818 278.672 681.266C280.568 671.786 285.836 665.917 294.477 663.656L305.414 678.805L305.141 679.023L287.531 692.531ZM330.789 664.586C334.034 665.862 336.385 667.703 337.844 670.109L329.586 676.234C329.513 674.74 328.474 673.409 326.469 672.242L321.164 676.125V698.82C321.164 699.951 321.365 701.026 321.766 702.047C322.094 702.849 322.549 703.578 323.133 704.234C323.789 705.036 324.445 705.62 325.102 705.984L316.953 712L316.898 711.945H316.844L316.734 711.891L316.461 711.727L316.078 711.508C315.75 711.289 315.44 711.07 315.148 710.852C314.784 710.56 314.419 710.25 314.055 709.922C313.216 709.12 312.56 708.227 312.086 707.242C311.466 706.039 311.156 704.745 311.156 703.359V677.82C311.156 675.742 310.5 673.956 309.188 672.461C308.531 671.695 307.875 671.13 307.219 670.766L315.312 664.75H315.367L315.531 664.859L315.75 664.969L316.078 665.133C316.333 665.315 316.607 665.497 316.898 665.68C317.227 665.935 317.536 666.19 317.828 666.445C318.594 667.102 319.232 667.831 319.742 668.633C320.398 669.617 320.818 670.674 321 671.805L330.789 664.586ZM355.016 676.398C355.016 674.831 353.958 673.445 351.844 672.242C348.344 674.831 346.594 677.602 346.594 680.555V700.188C346.594 701.755 347.651 703.141 349.766 704.344L354.961 700.516L355.016 676.398ZM364.914 699.914C364.914 700.789 365.133 701.628 365.57 702.43C365.898 703.086 366.336 703.724 366.883 704.344C367.576 705.036 368.25 705.583 368.906 705.984L360.758 712C359.409 711.234 358.26 710.068 357.312 708.5C356.62 707.333 356.036 705.984 355.562 704.453L345.391 712C340.469 710.068 337.625 706.878 336.859 702.43H336.805C336.659 701.701 336.568 700.862 336.531 699.914H336.586V681.211C336.586 679.279 337.607 677.219 339.648 675.031C341.253 673.281 343.495 671.513 346.375 669.727C349.656 667.648 352.919 665.935 356.164 664.586C359.372 665.826 361.706 667.63 363.164 670C364.331 671.896 364.914 674.065 364.914 676.508V699.914ZM373.172 658.461C373.172 657.294 372.971 656.219 372.57 655.234C372.242 654.469 371.786 653.74 371.203 653.047C370.547 652.318 369.891 651.771 369.234 651.406L377.383 645.391H377.438L377.492 645.445L377.602 645.5L377.875 645.664L378.258 645.883C378.586 646.065 378.896 646.284 379.188 646.539C379.552 646.794 379.898 647.086 380.227 647.414C381.102 648.253 381.776 649.146 382.25 650.094C382.87 651.333 383.18 652.646 383.18 654.031V699.039C383.18 702.138 384.474 704.453 387.062 705.984L378.969 712L378.914 711.945H378.859C375.068 709.102 373.172 705.51 373.172 701.172V658.461Z" fill="white"/>
<path d="M148.72 90.1104V104.611C149.345 104.369 149.961 104.248 150.566 104.248C151.515 104.248 152.433 104.551 153.321 105.156V90.292C153.321 89.4242 152.746 88.6471 151.596 87.9609L148.72 90.1104ZM148.72 113.391C148.72 114.016 148.831 114.602 149.053 115.146C149.234 115.59 149.487 115.994 149.81 116.357C150.173 116.781 150.536 117.094 150.899 117.296L146.389 120.626L146.358 120.596H146.328L146.268 120.565L146.116 120.475L145.904 120.354C145.723 120.232 145.551 120.111 145.39 119.99C145.188 119.829 144.996 119.657 144.814 119.476C144.33 119.032 143.957 118.537 143.694 117.992C143.351 117.326 143.18 116.61 143.18 115.843V90.9883C143.18 90.3626 143.069 89.7673 142.847 89.2021C142.665 88.7783 142.413 88.3747 142.09 87.9912C141.727 87.5876 141.363 87.2848 141 87.083L145.48 83.7529H145.511L145.602 83.8135L145.723 83.874L145.904 83.9648C146.066 84.0658 146.217 84.1667 146.358 84.2676C146.54 84.4089 146.712 84.5501 146.873 84.6914C147.317 85.0749 147.68 85.4886 147.963 85.9326C148.306 86.4775 148.538 87.0729 148.659 87.7188L153.987 83.7529C156.712 84.8226 158.296 86.5885 158.74 89.0508L158.771 103.945L150.688 110.03C150.365 109.506 149.709 108.961 148.72 108.396V113.391ZM172.787 90.292C172.787 89.4242 172.202 88.6572 171.031 87.9912C169.094 89.4242 168.125 90.958 168.125 92.5928V103.461C168.125 104.329 168.71 105.096 169.881 105.762L172.757 103.643L172.787 90.292ZM178.267 103.31C178.267 103.794 178.388 104.258 178.63 104.702C178.812 105.065 179.054 105.419 179.356 105.762C179.74 106.145 180.113 106.448 180.477 106.67L175.966 110C175.219 109.576 174.583 108.93 174.059 108.062C173.675 107.417 173.352 106.67 173.09 105.822L167.459 110C164.734 108.93 163.16 107.164 162.736 104.702H162.706C162.625 104.299 162.575 103.834 162.555 103.31H162.585V92.9561C162.585 91.8864 163.15 90.7461 164.28 89.5352C165.168 88.5664 166.41 87.5876 168.004 86.5986C169.82 85.4482 171.627 84.4997 173.423 83.7529C175.199 84.4391 176.491 85.4382 177.298 86.75C177.944 87.7995 178.267 89.0003 178.267 90.3525V103.31ZM194.312 83.7529C196.108 84.4593 197.41 85.4785 198.217 86.8105L193.646 90.2012C193.605 89.3737 193.03 88.637 191.92 87.9912L188.983 90.1406V102.704C188.983 103.33 189.094 103.925 189.316 104.49C189.498 104.934 189.75 105.338 190.073 105.701C190.437 106.145 190.8 106.468 191.163 106.67L186.652 110L186.622 109.97H186.592L186.531 109.939L186.38 109.849L186.168 109.728C185.986 109.606 185.815 109.485 185.653 109.364C185.451 109.203 185.25 109.031 185.048 108.85C184.584 108.406 184.22 107.911 183.958 107.366C183.615 106.7 183.443 105.984 183.443 105.217V91.0791C183.443 89.9287 183.08 88.9398 182.354 88.1123C181.99 87.6885 181.627 87.3757 181.264 87.1738L185.744 83.8438H185.774L185.865 83.9043L185.986 83.9648L186.168 84.0557C186.309 84.1566 186.461 84.2575 186.622 84.3584C186.804 84.4997 186.975 84.641 187.137 84.7822C187.561 85.1455 187.914 85.5492 188.196 85.9932C188.56 86.5381 188.792 87.1234 188.893 87.749L194.312 83.7529ZM205.876 86.5986V102.765C205.876 103.915 206.239 104.904 206.966 105.731C207.329 106.155 207.692 106.468 208.056 106.67L203.575 110L203.545 109.97H203.484L203.424 109.939L203.272 109.849L203.061 109.728C202.899 109.606 202.728 109.485 202.546 109.364C202.344 109.203 202.152 109.031 201.971 108.85C201.486 108.406 201.113 107.911 200.851 107.366C200.507 106.7 200.336 105.984 200.336 105.217V86.5986H198.096L199.307 83.7529H200.366C200.366 82.4613 200.245 81.543 200.003 80.998C199.821 80.5742 199.569 80.1706 199.246 79.7871C198.883 79.3835 198.52 79.0807 198.156 78.8789L202.667 75.5488H202.697L202.728 75.5791L202.788 75.6094L202.939 75.7002L203.151 75.8213C203.333 75.9222 203.505 76.0433 203.666 76.1846C203.868 76.3258 204.07 76.4873 204.271 76.6689C204.736 77.1331 205.099 77.6276 205.361 78.1523C205.704 78.8385 205.876 79.5651 205.876 80.332V83.7529H208.449L207.238 86.5986H205.876ZM223.919 83.7529L223.949 83.7832H223.979L224.04 83.8135L224.191 83.9043L224.403 84.0254C224.585 84.1465 224.757 84.2676 224.918 84.3887C225.14 84.5501 225.342 84.7217 225.523 84.9033C225.988 85.3473 226.361 85.8418 226.644 86.3867C226.987 87.0527 227.158 87.7692 227.158 88.5361V107.608C227.138 110.918 226.502 113.613 225.251 115.691C225.09 115.934 224.948 116.146 224.827 116.327C224.646 116.63 224.454 116.902 224.252 117.145C223.747 117.831 223.213 118.406 222.647 118.87C221.336 120 219.903 120.565 218.349 120.565C218.046 120.565 217.743 120.545 217.44 120.505C215.846 120.283 214.494 119.506 213.384 118.174C212.637 117.286 212.264 116.388 212.264 115.479C212.264 114.894 212.425 114.299 212.748 113.693C213.273 112.704 214.07 112.2 215.14 112.18C215.483 112.18 215.826 112.23 216.169 112.331C216.29 112.351 216.401 112.382 216.502 112.422L216.593 112.482H216.623C215.876 112.947 215.463 113.522 215.382 114.208V114.42C215.382 114.945 215.584 115.409 215.987 115.812C216.451 116.257 217.007 116.479 217.652 116.479H217.804C218.611 116.438 219.378 116.045 220.104 115.298C221.114 114.269 221.618 113.048 221.618 111.635V106.034L216.26 110C214.504 109.314 213.212 108.315 212.385 107.003C211.739 105.953 211.416 104.753 211.416 103.4V90.4434C211.416 89.959 211.305 89.4948 211.083 89.0508C210.901 88.6875 210.649 88.3343 210.326 87.9912C209.963 87.6077 209.6 87.3151 209.236 87.1133L213.747 83.7529C214.373 84.1364 214.928 84.6611 215.412 85.3271C215.796 85.8923 216.118 86.528 216.381 87.2344C216.684 88.0618 216.875 89.0609 216.956 90.2314L216.926 103.461C216.926 104.329 217.511 105.106 218.682 105.792L221.618 103.582V90.9883C221.618 89.8581 221.255 88.8691 220.528 88.0215C220.165 87.5977 219.792 87.2949 219.408 87.1133L223.919 83.7529ZM252.194 102.765C252.194 104.5 252.911 105.802 254.344 106.67L249.863 110L249.833 109.97H249.803C247.724 108.396 246.685 106.408 246.685 104.006V90.292C246.685 89.4242 246.109 88.6572 244.959 87.9912L242.022 90.1406V102.765C242.022 104.5 242.739 105.802 244.172 106.67L239.691 110L239.661 109.97H239.631C237.532 108.396 236.482 106.408 236.482 104.006V91.0791C236.482 89.9287 236.119 88.9398 235.393 88.1123C235.029 87.6885 234.666 87.3757 234.303 87.1738L238.783 83.8438H238.813L238.904 83.9043L239.025 83.9648L239.207 84.0557C239.348 84.1566 239.5 84.2575 239.661 84.3584C239.843 84.4997 240.014 84.641 240.176 84.7822C240.6 85.1455 240.953 85.5492 241.235 85.9932C241.599 86.5381 241.831 87.1234 241.932 87.749L247.351 83.7529C249.631 84.641 251.115 86.0537 251.801 87.9912L257.492 83.7529C259.268 84.4391 260.56 85.4382 261.367 86.75C262.013 87.7995 262.336 89.0003 262.336 90.3525V102.765C262.336 104.5 263.062 105.802 264.516 106.67L260.035 110L260.005 109.97H259.975C257.876 108.396 256.826 106.408 256.826 104.006V90.292C256.826 89.4242 256.251 88.6572 255.101 87.9912L252.194 90.1406V102.765ZM271.993 87.2949C271.085 88.849 270.631 90.8874 270.631 93.4102C270.631 94.5 270.722 95.6908 270.903 96.9824L276.11 92.9863L271.993 87.2949ZM271.297 99.2227C271.499 99.929 271.761 100.605 272.084 101.251C272.568 102.139 273.144 102.896 273.81 103.521C275.243 104.833 277.049 105.489 279.229 105.489C279.915 105.489 280.641 105.419 281.408 105.277L275.232 110C274.97 109.98 274.698 109.95 274.415 109.909C274.052 109.849 273.688 109.768 273.325 109.667C272.356 109.384 271.468 108.961 270.661 108.396C268.36 106.781 266.897 104.147 266.271 100.494C266.07 99.4043 265.969 98.2842 265.969 97.1338C265.969 95.7816 266.11 94.3991 266.393 92.9863C267.442 87.7389 270.358 84.4896 275.142 83.2383L281.196 91.624L281.045 91.7451L271.297 99.2227ZM289.885 102.765C289.885 104.5 290.611 105.802 292.064 106.67L287.584 110L287.554 109.97H287.523C285.424 108.396 284.375 106.408 284.375 104.006V91.0791C284.375 89.9287 284.012 88.9398 283.285 88.1123C282.922 87.6885 282.559 87.3757 282.195 87.1738L286.676 83.8438H286.706L286.797 83.9043L286.918 83.9648L287.1 84.0557C287.241 84.1566 287.392 84.2575 287.554 84.3584C287.735 84.4997 287.907 84.641 288.068 84.7822C288.492 85.1455 288.845 85.5492 289.128 85.9932C289.491 86.5381 289.743 87.1234 289.885 87.749L295.243 83.7529C297.019 84.4391 298.311 85.4382 299.118 86.75C299.764 87.7995 300.087 89.0003 300.087 90.3525V102.765C300.087 104.5 300.813 105.802 302.267 106.67L297.786 110L297.756 109.97H297.726C295.627 108.396 294.577 106.408 294.577 104.006V90.292C294.577 89.4443 294.002 88.6774 292.852 87.9912L289.885 90.1406V102.765ZM314.8 90.292C314.8 89.4242 314.225 88.6572 313.074 87.9912L310.107 90.1709V103.582L313.014 105.762C314.184 105.076 314.77 104.309 314.77 103.461L314.8 103.4V90.292ZM315.466 83.7529C317.242 84.4391 318.534 85.4382 319.341 86.75C319.987 87.7995 320.31 89.0003 320.31 90.3525V104.702H320.279C319.855 107.164 318.251 108.93 315.466 110L311.591 107.185L307.807 110L307.776 109.97H307.746L307.686 109.939L307.534 109.849L307.322 109.728C307.141 109.606 306.969 109.485 306.808 109.364C306.606 109.203 306.414 109.031 306.232 108.85C305.748 108.406 305.375 107.911 305.112 107.366C304.769 106.7 304.598 105.984 304.598 105.217V80.3623C304.598 79.7165 304.487 79.1211 304.265 78.5762C304.083 78.1523 303.831 77.7487 303.508 77.3652C303.145 76.9616 302.781 76.6589 302.418 76.457L306.929 73.127H306.959L306.989 73.1572L307.05 73.1875L307.201 73.2783L307.413 73.3994C307.595 73.5003 307.766 73.6214 307.928 73.7627C308.13 73.904 308.321 74.0654 308.503 74.2471C308.987 74.7113 309.361 75.2057 309.623 75.7305C309.966 76.4167 310.138 77.1432 310.138 77.9102V87.7188L315.466 83.7529ZM328.968 87.2949C328.06 88.849 327.605 90.8874 327.605 93.4102C327.605 94.5 327.696 95.6908 327.878 96.9824L333.085 92.9863L328.968 87.2949ZM328.271 99.2227C328.473 99.929 328.736 100.605 329.059 101.251C329.543 102.139 330.118 102.896 330.784 103.521C332.217 104.833 334.023 105.489 336.203 105.489C336.889 105.489 337.616 105.419 338.383 105.277L332.207 110C331.945 109.98 331.672 109.95 331.39 109.909C331.026 109.849 330.663 109.768 330.3 109.667C329.331 109.384 328.443 108.961 327.636 108.396C325.335 106.781 323.872 104.147 323.246 100.494C323.044 99.4043 322.943 98.2842 322.943 97.1338C322.943 95.7816 323.085 94.3991 323.367 92.9863C324.417 87.7389 327.333 84.4896 332.116 83.2383L338.171 91.624L338.02 91.7451L328.271 99.2227ZM352.218 83.7529C354.014 84.4593 355.316 85.4785 356.123 86.8105L351.552 90.2012C351.511 89.3737 350.936 88.637 349.826 87.9912L346.89 90.1406V102.704C346.89 103.33 347.001 103.925 347.223 104.49C347.404 104.934 347.657 105.338 347.979 105.701C348.343 106.145 348.706 106.468 349.069 106.67L344.559 110L344.528 109.97H344.498L344.438 109.939L344.286 109.849L344.074 109.728C343.893 109.606 343.721 109.485 343.56 109.364C343.358 109.203 343.156 109.031 342.954 108.85C342.49 108.406 342.127 107.911 341.864 107.366C341.521 106.7 341.35 105.984 341.35 105.217V91.0791C341.35 89.9287 340.986 88.9398 340.26 88.1123C339.896 87.6885 339.533 87.3757 339.17 87.1738L343.65 83.8438H343.681L343.771 83.9043L343.893 83.9648L344.074 84.0557C344.215 84.1566 344.367 84.2575 344.528 84.3584C344.71 84.4997 344.882 84.641 345.043 84.7822C345.467 85.1455 345.82 85.5492 346.103 85.9932C346.466 86.5381 346.698 87.1234 346.799 87.749L352.218 83.7529ZM365.417 94.4395C368.202 96.0339 369.716 97.6081 369.958 99.1621C370.119 100.09 370.2 100.928 370.2 101.675C370.2 101.998 370.18 102.311 370.14 102.613C369.978 103.885 369.524 104.904 368.777 105.671C368.656 105.772 367.032 107.003 363.903 109.364C363.318 109.788 362.672 110 361.966 110C361.078 110 360.079 109.657 358.969 108.971C357.011 107.78 355.951 106.327 355.79 104.611L359.998 101.493C360.139 101.998 360.382 102.502 360.725 103.007C361.653 104.339 362.743 105.166 363.994 105.489C364.216 105.55 364.418 105.58 364.6 105.58C365.165 105.58 365.578 105.338 365.841 104.854C365.901 104.753 365.952 104.601 365.992 104.399L366.022 104.188V103.976C366.043 103.854 366.053 103.733 366.053 103.612C366.053 103.431 366.033 103.259 365.992 103.098C365.629 101.281 364.337 99.818 362.117 98.708C359.897 97.5778 358.484 96.7907 357.879 96.3467C356.345 95.1761 355.578 93.8138 355.578 92.2598V91.9268C355.679 90.4938 356.224 89.3031 357.213 88.3545L357.516 88.082L363.358 83.7227C363.54 83.7025 363.732 83.6924 363.934 83.6924C365.165 83.6924 366.396 84.1364 367.627 85.0244C369.02 86.0133 369.968 87.1839 370.473 88.5361L366.144 91.7754C366.144 91.6947 365.841 91.2607 365.235 90.4736C364.569 89.6663 363.954 89.1012 363.389 88.7783C362.904 88.4554 362.269 88.2536 361.481 88.1729H361.36C361.138 88.1729 360.967 88.2132 360.846 88.2939L360.785 88.3545C360.361 88.6774 360.149 89.1214 360.149 89.6865V89.7471C360.17 89.9489 360.22 90.1709 360.301 90.4131C360.361 90.5745 360.442 90.7461 360.543 90.9277C361.027 91.6543 362.652 92.8249 365.417 94.4395ZM390.09 102.765C390.09 104.5 390.816 105.802 392.27 106.67L387.789 110L387.759 109.97H387.729C385.63 108.396 384.58 106.408 384.58 104.006V90.292C384.58 89.4242 383.995 88.6572 382.824 87.9912L379.888 90.1406V102.765C379.888 104.5 380.604 105.802 382.037 106.67L377.557 110L377.526 109.97H377.496C375.397 108.396 374.348 106.408 374.348 104.006V80.3623C374.348 79.7165 374.237 79.1211 374.015 78.5762C373.833 78.1523 373.581 77.7487 373.258 77.3652C372.895 76.9616 372.531 76.6589 372.168 76.457L376.648 73.127H376.709L376.739 73.1572L376.8 73.1875L376.951 73.2783L377.163 73.3994C377.325 73.5003 377.496 73.6214 377.678 73.7627C377.88 73.904 378.071 74.0654 378.253 74.2471C378.737 74.7113 379.111 75.2057 379.373 75.7305C379.716 76.4167 379.888 77.1432 379.888 77.9102V87.7188L385.216 83.7529C386.992 84.4391 388.284 85.4382 389.091 86.75C389.737 87.7995 390.06 89.0003 390.06 90.3525L390.09 102.765ZM400.776 102.765C400.776 103.915 401.14 104.904 401.866 105.731C402.229 106.155 402.593 106.468 402.956 106.67L398.445 110L398.415 109.97H398.385L398.324 109.939L398.173 109.849L397.961 109.728C397.779 109.606 397.608 109.485 397.446 109.364C397.244 109.203 397.053 109.031 396.871 108.85C396.387 108.406 396.013 107.911 395.751 107.366C395.408 106.7 395.236 105.984 395.236 105.217V91.0791C395.236 89.9287 394.873 88.9398 394.146 88.1123C393.783 87.6885 393.42 87.3757 393.057 87.1738L397.537 83.8438H397.567L397.628 83.874L397.688 83.9043L397.84 83.9951L398.052 84.1162C398.213 84.2171 398.385 84.3382 398.566 84.4795C398.768 84.641 398.96 84.8024 399.142 84.9639C399.626 85.4281 399.999 85.9225 400.262 86.4473C400.605 87.1335 400.776 87.86 400.776 88.627V102.765ZM397.779 76.5479C397.941 76.8102 398.132 77.0625 398.354 77.3047C398.657 77.6276 398.98 77.9001 399.323 78.1221C399.969 78.5055 400.675 78.6973 401.442 78.6973C401.866 78.6973 402.31 78.6367 402.774 78.5156C402.108 79.8477 401.22 80.8971 400.11 81.6641C399.283 82.2292 398.455 82.5117 397.628 82.5117C396.175 82.5117 394.712 81.6439 393.238 79.9082L397.779 76.5479ZM411.433 90.1104V104.611C412.058 104.369 412.674 104.248 413.279 104.248C414.228 104.248 415.146 104.551 416.034 105.156V90.292C416.034 89.4242 415.459 88.6471 414.309 87.9609L411.433 90.1104ZM411.433 113.391C411.433 114.016 411.544 114.602 411.766 115.146C411.947 115.59 412.2 115.994 412.522 116.357C412.886 116.781 413.249 117.094 413.612 117.296L409.102 120.626L409.071 120.596H409.041L408.98 120.565L408.829 120.475L408.617 120.354C408.436 120.232 408.264 120.111 408.103 119.99C407.901 119.829 407.709 119.657 407.527 119.476C407.043 119.032 406.67 118.537 406.407 117.992C406.064 117.326 405.893 116.61 405.893 115.843V90.9883C405.893 90.3626 405.782 89.7673 405.56 89.2021C405.378 88.7783 405.126 88.3747 404.803 87.9912C404.439 87.5876 404.076 87.2848 403.713 87.083L408.193 83.7529H408.224L408.314 83.8135L408.436 83.874L408.617 83.9648C408.779 84.0658 408.93 84.1667 409.071 84.2676C409.253 84.4089 409.424 84.5501 409.586 84.6914C410.03 85.0749 410.393 85.4886 410.676 85.9326C411.019 86.4775 411.251 87.0729 411.372 87.7188L416.7 83.7529C419.425 84.8226 421.009 86.5885 421.453 89.0508L421.483 103.945L413.4 110.03C413.077 109.506 412.422 108.961 411.433 108.396V113.391Z" fill="white"/>
<path d="M141 118.84H422.24V123.381H141V118.84Z" fill="white"/>
<mask id="path-4-inside-1_0_1" fill="white">
<rect x="15" y="22" width="533" height="764" rx="23"/>
</mask>
<rect x="15" y="22" width="533" height="764" rx="23" stroke="white" stroke-width="54" mask="url(#path-4-inside-1_0_1)"/>
<path d="M214.305 408.652C214.305 408.652 208.146 415.953 207.889 416.134C205.707 399.495 198.273 379.062 222.553 382.05C220.223 340.924 211.666 322.389 220.268 322.389C227.127 322.388 227.502 344.557 227.502 344.557C227.502 344.557 228.968 342.436 233.269 342.629C237.57 342.822 238.255 361.231 238.255 361.231C238.255 361.231 239.161 359.351 243.169 359.736C247.178 360.121 246.956 375.207 246.956 375.207C246.956 375.207 248.129 374.435 251.647 374.725C255.166 375.015 256.242 388.604 256.242 388.604C256.242 388.604 257.122 387.062 259.663 387.062C262.204 387.062 262.791 388.508 262.791 388.508L263.769 388.315C277.552 370.195 276.281 350.533 298.667 346.871C321.053 343.208 324.669 340.606 335.031 335.594C342.461 332.605 352.04 319.787 355.559 325.473C355.559 325.473 353.213 336.846 338.355 347.545C338.355 347.545 342.461 350.05 342.265 354.002C342.07 357.954 333.468 363.641 333.468 363.641C333.468 363.641 336.107 365.857 335.911 368.363C335.716 370.869 333.663 373.953 325.354 377.037C325.354 377.037 328.189 379.35 327.895 382.821C327.601 386.291 316.458 391.014 316.458 391.014C316.458 391.014 322.519 401.327 306.682 405.085C306.682 405.085 307.758 409.326 306.194 411.735C304.63 414.145 296.126 415.591 296.126 415.591C296.126 415.591 297.886 421.085 292.509 423.398C287.133 425.711 279.215 428.795 279.215 428.795L322.129 471.3C322.129 471.3 330.34 478.047 329.265 481.806C328.19 485.565 325.062 483.251 325.062 483.251C325.062 483.251 329.167 489.998 326.137 492.697C323.106 495.396 312.451 483.83 312.451 483.83C312.451 483.83 316.85 491.348 313.819 494.915C310.789 498.48 302.969 484.987 302.969 484.987C302.969 484.987 303.751 491.349 300.916 493.662C298.081 495.975 289.283 480.843 289.283 480.843C289.283 480.843 286.644 485.855 281.561 487.012C276.478 488.168 273.643 471.783 273.643 471.783C273.643 471.783 274.23 472.362 268.56 474.675C263.868 476.314 262.499 453.471 262.988 452.507C237.463 445.76 227.478 444.922 221.833 436.604C216.189 428.286 215.968 417.327 215.968 417.327C215.968 417.327 216.456 409.038 214.306 408.653L214.305 408.652Z" fill="#5577B5"/>
<path d="M310.935 399.978C313.06 397.592 302.356 398.46 301.843 394.99C301.33 391.521 310.055 386.099 307.782 384.292C305.508 382.485 295.977 391.592 295.612 394.267C295.452 395.432 296.858 398.604 298.398 399.472C299.938 400.339 295.685 404.388 298.472 404.243C301.258 404.099 302.397 397.376 306.096 400.774C309.795 404.171 310.004 401.023 310.935 399.979L310.935 399.978Z" fill="#F9D9AE"/>
<path d="M218.313 398.725C219.879 398.725 221.148 397.473 221.148 395.929C221.148 394.386 219.879 393.134 218.313 393.134C216.747 393.134 215.478 394.386 215.478 395.929C215.478 397.473 216.747 398.725 218.313 398.725Z" fill="#F9D9AE"/>
<path d="M209.156 280.924C209.156 280.924 211.404 265.985 249.455 257.623C250.897 258.321 251.116 259.498 251.092 259.791C247.72 263.911 235.861 288.731 208.092 289.273C210.438 282.044 209.155 280.923 209.155 280.923L209.156 280.924Z" fill="#5577B5"/>
<path d="M139.138 412.724C114.773 414.008 105.755 381.118 100 366.985C102.823 365.069 101.953 363.346 102.161 363.294C106.468 362.229 133.06 373.488 138.778 395.133C140.076 399.772 139.139 412.724 139.139 412.724H139.138Z" fill="#5577B5"/>
<path d="M173.07 318.324C190.395 330.854 228.225 318.805 229.3 315.239C229.778 312.926 229.593 312.444 229.3 311.866C227.052 312.445 197.335 296.638 173.972 316.107C173.972 316.107 173.07 317.939 173.07 318.324Z" fill="#5577B5"/>
<path d="M145.806 360.049C156.953 361.051 168.577 360.646 180.45 354.324C193.525 347.363 204.751 337.206 205.044 335.76C205.337 334.314 204.384 331.929 203.358 331.061C194.927 334.748 165.38 326.651 148.958 355.856L145.806 360.049V360.049Z" fill="#5577B5"/>
<path d="M150.125 460.634C121.306 462.437 113.337 436.552 100.621 426.839C100.792 424.94 101.707 424.516 102.652 423.526C134.557 430.456 141.749 438.759 145.059 442.814C145.443 441.617 150.648 459.448 150.126 460.633L150.125 460.634Z" fill="#5577B5"/>
<path d="M139.465 413.422C143.943 382.735 173.7 380.134 187.034 368.936C189.049 369.54 189.304 370.596 190.162 371.81C175.557 403.791 164.978 409.496 159.856 412.071C161.066 412.742 140.631 414.235 139.465 413.422Z" fill="#5577B5"/>
<path d="M148.85 453.435C145.306 434.375 166.495 414.785 175.439 400.617C177.446 400.301 179.05 400.761 179.935 402.545C179.935 402.545 180.815 442.64 151.489 460.375C150.585 457.002 149.387 455.653 148.85 453.435Z" fill="#5577B5"/>
<path d="M145.71 360.466C119.229 343.749 129.141 315.962 124.32 299.36C125.712 297.801 126.791 298.01 128.267 297.741C151.752 324.085 152.642 335.941 152.9 341.604C154.021 340.797 146.943 359.756 145.71 360.466Z" fill="#5577B5"/>
<path d="M173.951 318.571C167.111 309.835 161.216 299.949 160.252 286.678C159.19 272.064 161.854 257.273 162.934 256.253C164.013 255.233 166.566 254.745 167.86 255.133C169.232 264.126 192.021 284.357 175.847 313.697L173.952 318.57L173.951 318.571Z" fill="#5577B5"/>
<path d="M175.418 499.541C147.243 513.306 128.197 490.614 111.281 486.134C110.643 484.156 111.381 483.35 111.908 481.965C146.908 475.692 157.672 481.049 162.727 483.748C162.603 482.385 175.437 498.134 175.418 499.542V499.541Z" fill="#5577B5"/>
<path d="M200.215 437.054C201.231 448.045 200.82 459.506 194.408 471.213C187.348 484.104 177.047 495.173 175.58 495.462C174.114 495.751 171.695 494.811 170.815 493.799C174.554 485.486 166.342 456.354 195.962 440.162L200.214 437.054H200.215Z" fill="#5577B5"/>
<path d="M353.151 280.924C353.151 280.924 350.902 265.985 312.852 257.623C311.41 258.321 311.191 259.498 311.215 259.791C314.587 263.911 326.446 288.731 354.214 289.273C351.868 282.044 353.152 280.923 353.152 280.923L353.151 280.924Z" fill="#5577B5"/>
<path d="M423.17 412.724C447.535 414.008 456.553 381.118 462.308 366.985C459.485 365.069 460.354 363.346 460.147 363.294C455.84 362.229 429.247 373.488 423.53 395.133C422.232 399.772 423.169 412.724 423.169 412.724H423.17Z" fill="#5577B5"/>
<path d="M389.236 318.324C371.912 330.854 334.081 318.805 333.006 315.239C332.528 312.926 332.713 312.444 333.006 311.866C335.254 312.445 364.971 296.638 388.335 316.107C388.335 316.107 389.236 317.939 389.236 318.324Z" fill="#5577B5"/>
<path d="M416.502 360.049C405.355 361.051 393.731 360.646 381.858 354.324C368.783 347.363 357.557 337.206 357.264 335.76C356.971 334.314 357.923 331.929 358.95 331.061C367.381 334.748 396.928 326.651 413.35 355.856L416.502 360.049V360.049Z" fill="#5577B5"/>
<path d="M412.182 460.634C441.002 462.437 448.971 436.552 461.687 426.839C461.516 424.94 460.601 424.516 459.655 423.526C427.75 430.456 420.559 438.759 417.249 442.814C416.864 441.617 411.659 459.448 412.181 460.633L412.182 460.634Z" fill="#5577B5"/>
<path d="M422.843 413.422C418.365 382.735 388.608 380.134 375.274 368.936C373.259 369.54 373.004 370.596 372.146 371.81C386.751 403.791 397.33 409.496 402.451 412.071C401.242 412.742 421.677 414.235 422.843 413.422Z" fill="#5577B5"/>
<path d="M413.458 453.435C417.002 434.375 395.813 414.785 386.869 400.617C384.862 400.301 383.258 400.761 382.372 402.545C382.372 402.545 381.493 442.64 410.819 460.375C411.723 457.002 412.921 455.653 413.458 453.435Z" fill="#5577B5"/>
<path d="M416.598 360.466C443.079 343.749 433.167 315.962 437.987 299.36C436.596 297.801 435.516 298.01 434.04 297.741C410.555 324.085 409.666 335.941 409.407 341.604C408.287 340.797 415.365 359.756 416.598 360.466Z" fill="#5577B5"/>
<path d="M388.356 318.571C395.197 309.835 401.091 299.949 402.055 286.678C403.117 272.064 400.454 257.273 399.374 256.253C398.294 255.233 395.741 254.745 394.448 255.133C393.076 264.126 370.287 284.357 386.461 313.697L388.356 318.57L388.356 318.571Z" fill="#5577B5"/>
<path d="M386.889 499.541C415.064 513.306 434.11 490.614 451.026 486.134C451.665 484.156 450.927 483.35 450.399 481.965C415.4 475.692 404.635 481.049 399.58 483.748C399.705 482.385 386.871 498.134 386.889 499.542V499.541Z" fill="#5577B5"/>
<path d="M362.092 437.054C361.077 448.045 361.488 459.506 367.899 471.213C374.959 484.104 385.26 495.173 386.727 495.462C388.194 495.751 390.613 494.811 391.493 493.799C387.754 485.486 395.965 456.354 366.346 440.162L362.093 437.054H362.092Z" fill="#5577B5"/>
<path d="M345.976 282.443C390.705 305.715 421.192 352.026 421.192 405.358C421.192 482.065 358.125 544.247 280.329 544.247C202.533 544.247 139.465 482.064 139.465 405.358C139.465 348.762 173.798 300.072 223.049 278.432" stroke="#863259" stroke-width="2" stroke-miterlimit="10" stroke-linecap="round"/>
</svg>