<svg width="563" height="808" viewBox="0 0 563 808" fill="none" xmlns="http://www.w3.org/2000/svg">
<rect x="3" y="3" width="557" height="802" rx="20" fill="#7AC6DE" stroke="#003963" stroke-width="6"/>
<path d="M185.922 705.82C191.536 704.69 195.893 704.125 198.992 704.125C206.284 704.161 213.339 706.039 220.156 709.758L208.344 718.344C204.698 714.625 198.044 712.766 188.383 712.766C184.19 712.766 179.396 713.13 174 713.859C178.484 709.156 180.727 702.375 180.727 693.516C180.727 687.828 179.815 681.302 177.992 673.938C177.773 672.516 177.664 671.076 177.664 669.617C177.664 666.372 178.174 663.055 179.195 659.664C182.148 649.747 188.984 643.896 199.703 642.109C200.76 641.49 201.909 641.18 203.148 641.18C204.898 641.18 206.849 641.781 209 642.984C212.755 645.062 215.581 648.38 217.477 652.938C217.951 654.068 218.188 655.216 218.188 656.383C218.188 657.878 217.805 659.409 217.039 660.977C215.945 663.237 211.862 666.992 204.789 672.242L204.461 672.461L204.188 672.625L203.969 672.734C207.104 669.234 208.672 665.88 208.672 662.672C208.672 659.719 207.341 656.893 204.68 654.195C201.945 651.424 198.336 649.747 193.852 649.164C193.305 649.055 192.74 648.964 192.156 648.891C190.698 651.807 189.969 655.927 189.969 661.25C189.969 662.891 190.042 664.641 190.188 666.5C191.318 680.026 191.883 687.883 191.883 690.07V690.289C191.737 695.466 189.75 700.643 185.922 705.82ZM235.523 698.93C235.523 701.008 236.18 702.794 237.492 704.289C238.148 705.055 238.805 705.62 239.461 705.984L231.312 712L231.258 711.945H231.203L231.094 711.891L230.82 711.727L230.438 711.508C230.109 711.289 229.799 711.07 229.508 710.852C229.143 710.56 228.797 710.25 228.469 709.922C227.594 709.12 226.919 708.227 226.445 707.242C225.826 706.039 225.516 704.745 225.516 703.359V677.82C225.516 675.742 224.859 673.956 223.547 672.461C222.891 671.695 222.234 671.13 221.578 670.766L229.672 664.75H229.727L229.836 664.805L229.945 664.859L230.219 665.023L230.602 665.242C230.893 665.424 231.203 665.643 231.531 665.898C231.896 666.19 232.242 666.482 232.57 666.773C233.445 667.612 234.12 668.505 234.594 669.453C235.214 670.693 235.523 672.005 235.523 673.391V698.93ZM230.109 651.57C230.401 652.044 230.747 652.5 231.148 652.938C231.695 653.521 232.279 654.013 232.898 654.414C234.065 655.107 235.341 655.453 236.727 655.453C237.492 655.453 238.294 655.344 239.133 655.125C237.93 657.531 236.326 659.427 234.32 660.812C232.826 661.833 231.331 662.344 229.836 662.344C227.211 662.344 224.568 660.776 221.906 657.641L230.109 651.57ZM263.195 676.398C263.195 674.831 262.156 673.445 260.078 672.242L254.719 676.18V700.406L259.969 704.344C262.083 703.104 263.141 701.719 263.141 700.188L263.195 700.078V676.398ZM264.398 664.586C267.607 665.826 269.94 667.63 271.398 670C272.565 671.896 273.148 674.065 273.148 676.508V702.43H273.094C272.328 706.878 269.43 710.068 264.398 712L257.398 706.914L250.562 712L250.508 711.945H250.453L250.344 711.891L250.07 711.727L249.688 711.508C249.359 711.289 249.049 711.07 248.758 710.852C248.393 710.56 248.047 710.25 247.719 709.922C246.844 709.12 246.169 708.227 245.695 707.242C245.076 706.039 244.766 704.745 244.766 703.359V658.461C244.766 657.294 244.565 656.219 244.164 655.234C243.836 654.469 243.38 653.74 242.797 653.047C242.141 652.318 241.484 651.771 240.828 651.406L248.977 645.391H249.031L249.086 645.445L249.195 645.5L249.469 645.664L249.852 645.883C250.18 646.065 250.49 646.284 250.781 646.539C251.146 646.794 251.492 647.086 251.82 647.414C252.695 648.253 253.37 649.146 253.844 650.094C254.464 651.333 254.773 652.646 254.773 654.031V671.75L264.398 664.586ZM288.789 670.984C287.148 673.792 286.328 677.474 286.328 682.031C286.328 684 286.492 686.151 286.82 688.484L296.227 681.266L288.789 670.984ZM287.531 692.531C287.896 693.807 288.37 695.029 288.953 696.195C289.828 697.799 290.867 699.167 292.07 700.297C294.659 702.667 297.922 703.852 301.859 703.852C303.099 703.852 304.411 703.724 305.797 703.469L294.641 712C294.167 711.964 293.674 711.909 293.164 711.836C292.508 711.727 291.852 711.581 291.195 711.398C289.445 710.888 287.841 710.122 286.383 709.102C282.227 706.185 279.583 701.427 278.453 694.828C278.089 692.859 277.906 690.836 277.906 688.758C277.906 686.315 278.161 683.818 278.672 681.266C280.568 671.786 285.836 665.917 294.477 663.656L305.414 678.805L305.141 679.023L287.531 692.531ZM330.789 664.586C334.034 665.862 336.385 667.703 337.844 670.109L329.586 676.234C329.513 674.74 328.474 673.409 326.469 672.242L321.164 676.125V698.82C321.164 699.951 321.365 701.026 321.766 702.047C322.094 702.849 322.549 703.578 323.133 704.234C323.789 705.036 324.445 705.62 325.102 705.984L316.953 712L316.898 711.945H316.844L316.734 711.891L316.461 711.727L316.078 711.508C315.75 711.289 315.44 711.07 315.148 710.852C314.784 710.56 314.419 710.25 314.055 709.922C313.216 709.12 312.56 708.227 312.086 707.242C311.466 706.039 311.156 704.745 311.156 703.359V677.82C311.156 675.742 310.5 673.956 309.188 672.461C308.531 671.695 307.875 671.13 307.219 670.766L315.312 664.75H315.367L315.531 664.859L315.75 664.969L316.078 665.133C316.333 665.315 316.607 665.497 316.898 665.68C317.227 665.935 317.536 666.19 317.828 666.445C318.594 667.102 319.232 667.831 319.742 668.633C320.398 669.617 320.818 670.674 321 671.805L330.789 664.586ZM355.016 676.398C355.016 674.831 353.958 673.445 351.844 672.242C348.344 674.831 346.594 677.602 346.594 680.555V700.188C346.594 701.755 347.651 703.141 349.766 704.344L354.961 700.516L355.016 676.398ZM364.914 699.914C364.914 700.789 365.133 701.628 365.57 702.43C365.898 703.086 366.336 703.724 366.883 704.344C367.576 705.036 368.25 705.583 368.906 705.984L360.758 712C359.409 711.234 358.26 710.068 357.312 708.5C356.62 707.333 356.036 705.984 355.562 704.453L345.391 712C340.469 710.068 337.625 706.878 336.859 702.43H336.805C336.659 701.701 336.568 700.862 336.531 699.914H336.586V681.211C336.586 679.279 337.607 677.219 339.648 675.031C341.253 673.281 343.495 671.513 346.375 669.727C349.656 667.648 352.919 665.935 356.164 664.586C359.372 665.826 361.706 667.63 363.164 670C364.331 671.896 364.914 674.065 364.914 676.508V699.914ZM373.172 658.461C373.172 657.294 372.971 656.219 372.57 655.234C372.242 654.469 371.786 653.74 371.203 653.047C370.547 652.318 369.891 651.771 369.234 651.406L377.383 645.391H377.438L377.492 645.445L377.602 645.5L377.875 645.664L378.258 645.883C378.586 646.065 378.896 646.284 379.188 646.539C379.552 646.794 379.898 647.086 380.227 647.414C381.102 648.253 381.776 649.146 382.25 650.094C382.87 651.333 383.18 652.646 383.18 654.031V699.039C383.18 702.138 384.474 704.453 387.062 705.984L378.969 712L378.914 711.945H378.859C375.068 709.102 373.172 705.51 373.172 701.172V658.461Z" fill="white"/>
<path d="M148.72 90.1104V104.611C149.345 104.369 149.961 104.248 150.566 104.248C151.515 104.248 152.433 104.551 153.321 105.156V90.292C153.321 89.4242 152.746 88.6471 151.596 87.9609L148.72 90.1104ZM148.72 113.391C148.72 114.016 148.831 114.602 149.053 115.146C149.234 115.59 149.487 115.994 149.81 116.357C150.173 116.781 150.536 117.094 150.899 117.296L146.389 120.626L146.358 120.596H146.328L146.268 120.565L146.116 120.475L145.904 120.354C145.723 120.232 145.551 120.111 145.39 119.99C145.188 119.829 144.996 119.657 144.814 119.476C144.33 119.032 143.957 118.537 143.694 117.992C143.351 117.326 143.18 116.61 143.18 115.843V90.9883C143.18 90.3626 143.069 89.7673 142.847 89.2021C142.665 88.7783 142.413 88.3747 142.09 87.9912C141.727 87.5876 141.363 87.2848 141 87.083L145.48 83.7529H145.511L145.602 83.8135L145.723 83.874L145.904 83.9648C146.066 84.0658 146.217 84.1667 146.358 84.2676C146.54 84.4089 146.712 84.5501 146.873 84.6914C147.317 85.0749 147.68 85.4886 147.963 85.9326C148.306 86.4775 148.538 87.0729 148.659 87.7188L153.987 83.7529C156.712 84.8226 158.296 86.5885 158.74 89.0508L158.771 103.945L150.688 110.03C150.365 109.506 149.709 108.961 148.72 108.396V113.391ZM172.787 90.292C172.787 89.4242 172.202 88.6572 171.031 87.9912C169.094 89.4242 168.125 90.958 168.125 92.5928V103.461C168.125 104.329 168.71 105.096 169.881 105.762L172.757 103.643L172.787 90.292ZM178.267 103.31C178.267 103.794 178.388 104.258 178.63 104.702C178.812 105.065 179.054 105.419 179.356 105.762C179.74 106.145 180.113 106.448 180.477 106.67L175.966 110C175.219 109.576 174.583 108.93 174.059 108.062C173.675 107.417 173.352 106.67 173.09 105.822L167.459 110C164.734 108.93 163.16 107.164 162.736 104.702H162.706C162.625 104.299 162.575 103.834 162.555 103.31H162.585V92.9561C162.585 91.8864 163.15 90.7461 164.28 89.5352C165.168 88.5664 166.41 87.5876 168.004 86.5986C169.82 85.4482 171.627 84.4997 173.423 83.7529C175.199 84.4391 176.491 85.4382 177.298 86.75C177.944 87.7995 178.267 89.0003 178.267 90.3525V103.31ZM194.312 83.7529C196.108 84.4593 197.41 85.4785 198.217 86.8105L193.646 90.2012C193.605 89.3737 193.03 88.637 191.92 87.9912L188.983 90.1406V102.704C188.983 103.33 189.094 103.925 189.316 104.49C189.498 104.934 189.75 105.338 190.073 105.701C190.437 106.145 190.8 106.468 191.163 106.67L186.652 110L186.622 109.97H186.592L186.531 109.939L186.38 109.849L186.168 109.728C185.986 109.606 185.815 109.485 185.653 109.364C185.451 109.203 185.25 109.031 185.048 108.85C184.584 108.406 184.22 107.911 183.958 107.366C183.615 106.7 183.443 105.984 183.443 105.217V91.0791C183.443 89.9287 183.08 88.9398 182.354 88.1123C181.99 87.6885 181.627 87.3757 181.264 87.1738L185.744 83.8438H185.774L185.865 83.9043L185.986 83.9648L186.168 84.0557C186.309 84.1566 186.461 84.2575 186.622 84.3584C186.804 84.4997 186.975 84.641 187.137 84.7822C187.561 85.1455 187.914 85.5492 188.196 85.9932C188.56 86.5381 188.792 87.1234 188.893 87.749L194.312 83.7529ZM205.876 86.5986V102.765C205.876 103.915 206.239 104.904 206.966 105.731C207.329 106.155 207.692 106.468 208.056 106.67L203.575 110L203.545 109.97H203.484L203.424 109.939L203.272 109.849L203.061 109.728C202.899 109.606 202.728 109.485 202.546 109.364C202.344 109.203 202.152 109.031 201.971 108.85C201.486 108.406 201.113 107.911 200.851 107.366C200.507 106.7 200.336 105.984 200.336 105.217V86.5986H198.096L199.307 83.7529H200.366C200.366 82.4613 200.245 81.543 200.003 80.998C199.821 80.5742 199.569 80.1706 199.246 79.7871C198.883 79.3835 198.52 79.0807 198.156 78.8789L202.667 75.5488H202.697L202.728 75.5791L202.788 75.6094L202.939 75.7002L203.151 75.8213C203.333 75.9222 203.505 76.0433 203.666 76.1846C203.868 76.3258 204.07 76.4873 204.271 76.6689C204.736 77.1331 205.099 77.6276 205.361 78.1523C205.704 78.8385 205.876 79.5651 205.876 80.332V83.7529H208.449L207.238 86.5986H205.876ZM223.919 83.7529L223.949 83.7832H223.979L224.04 83.8135L224.191 83.9043L224.403 84.0254C224.585 84.1465 224.757 84.2676 224.918 84.3887C225.14 84.5501 225.342 84.7217 225.523 84.9033C225.988 85.3473 226.361 85.8418 226.644 86.3867C226.987 87.0527 227.158 87.7692 227.158 88.5361V107.608C227.138 110.918 226.502 113.613 225.251 115.691C225.09 115.934 224.948 116.146 224.827 116.327C224.646 116.63 224.454 116.902 224.252 117.145C223.747 117.831 223.213 118.406 222.647 118.87C221.336 120 219.903 120.565 218.349 120.565C218.046 120.565 217.743 120.545 217.44 120.505C215.846 120.283 214.494 119.506 213.384 118.174C212.637 117.286 212.264 116.388 212.264 115.479C212.264 114.894 212.425 114.299 212.748 113.693C213.273 112.704 214.07 112.2 215.14 112.18C215.483 112.18 215.826 112.23 216.169 112.331C216.29 112.351 216.401 112.382 216.502 112.422L216.593 112.482H216.623C215.876 112.947 215.463 113.522 215.382 114.208V114.42C215.382 114.945 215.584 115.409 215.987 115.812C216.451 116.257 217.007 116.479 217.652 116.479H217.804C218.611 116.438 219.378 116.045 220.104 115.298C221.114 114.269 221.618 113.048 221.618 111.635V106.034L216.26 110C214.504 109.314 213.212 108.315 212.385 107.003C211.739 105.953 211.416 104.753 211.416 103.4V90.4434C211.416 89.959 211.305 89.4948 211.083 89.0508C210.901 88.6875 210.649 88.3343 210.326 87.9912C209.963 87.6077 209.6 87.3151 209.236 87.1133L213.747 83.7529C214.373 84.1364 214.928 84.6611 215.412 85.3271C215.796 85.8923 216.118 86.528 216.381 87.2344C216.684 88.0618 216.875 89.0609 216.956 90.2314L216.926 103.461C216.926 104.329 217.511 105.106 218.682 105.792L221.618 103.582V90.9883C221.618 89.8581 221.255 88.8691 220.528 88.0215C220.165 87.5977 219.792 87.2949 219.408 87.1133L223.919 83.7529ZM252.194 102.765C252.194 104.5 252.911 105.802 254.344 106.67L249.863 110L249.833 109.97H249.803C247.724 108.396 246.685 106.408 246.685 104.006V90.292C246.685 89.4242 246.109 88.6572 244.959 87.9912L242.022 90.1406V102.765C242.022 104.5 242.739 105.802 244.172 106.67L239.691 110L239.661 109.97H239.631C237.532 108.396 236.482 106.408 236.482 104.006V91.0791C236.482 89.9287 236.119 88.9398 235.393 88.1123C235.029 87.6885 234.666 87.3757 234.303 87.1738L238.783 83.8438H238.813L238.904 83.9043L239.025 83.9648L239.207 84.0557C239.348 84.1566 239.5 84.2575 239.661 84.3584C239.843 84.4997 240.014 84.641 240.176 84.7822C240.6 85.1455 240.953 85.5492 241.235 85.9932C241.599 86.5381 241.831 87.1234 241.932 87.749L247.351 83.7529C249.631 84.641 251.115 86.0537 251.801 87.9912L257.492 83.7529C259.268 84.4391 260.56 85.4382 261.367 86.75C262.013 87.7995 262.336 89.0003 262.336 90.3525V102.765C262.336 104.5 263.062 105.802 264.516 106.67L260.035 110L260.005 109.97H259.975C257.876 108.396 256.826 106.408 256.826 104.006V90.292C256.826 89.4242 256.251 88.6572 255.101 87.9912L252.194 90.1406V102.765ZM271.993 87.2949C271.085 88.849 270.631 90.8874 270.631 93.4102C270.631 94.5 270.722 95.6908 270.903 96.9824L276.11 92.9863L271.993 87.2949ZM271.297 99.2227C271.499 99.929 271.761 100.605 272.084 101.251C272.568 102.139 273.144 102.896 273.81 103.521C275.243 104.833 277.049 105.489 279.229 105.489C279.915 105.489 280.641 105.419 281.408 105.277L275.232 110C274.97 109.98 274.698 109.95 274.415 109.909C274.052 109.849 273.688 109.768 273.325 109.667C272.356 109.384 271.468 108.961 270.661 108.396C268.36 106.781 266.897 104.147 266.271 100.494C266.07 99.4043 265.969 98.2842 265.969 97.1338C265.969 95.7816 266.11 94.3991 266.393 92.9863C267.442 87.7389 270.358 84.4896 275.142 83.2383L281.196 91.624L281.045 91.7451L271.297 99.2227ZM289.885 102.765C289.885 104.5 290.611 105.802 292.064 106.67L287.584 110L287.554 109.97H287.523C285.424 108.396 284.375 106.408 284.375 104.006V91.0791C284.375 89.9287 284.012 88.9398 283.285 88.1123C282.922 87.6885 282.559 87.3757 282.195 87.1738L286.676 83.8438H286.706L286.797 83.9043L286.918 83.9648L287.1 84.0557C287.241 84.1566 287.392 84.2575 287.554 84.3584C287.735 84.4997 287.907 84.641 288.068 84.7822C288.492 85.1455 288.845 85.5492 289.128 85.9932C289.491 86.5381 289.743 87.1234 289.885 87.749L295.243 83.7529C297.019 84.4391 298.311 85.4382 299.118 86.75C299.764 87.7995 300.087 89.0003 300.087 90.3525V102.765C300.087 104.5 300.813 105.802 302.267 106.67L297.786 110L297.756 109.97H297.726C295.627 108.396 294.577 106.408 294.577 104.006V90.292C294.577 89.4443 294.002 88.6774 292.852 87.9912L289.885 90.1406V102.765ZM314.8 90.292C314.8 89.4242 314.225 88.6572 313.074 87.9912L310.107 90.1709V103.582L313.014 105.762C314.184 105.076 314.77 104.309 314.77 103.461L314.8 103.4V90.292ZM315.466 83.7529C317.242 84.4391 318.534 85.4382 319.341 86.75C319.987 87.7995 320.31 89.0003 320.31 90.3525V104.702H320.279C319.855 107.164 318.251 108.93 315.466 110L311.591 107.185L307.807 110L307.776 109.97H307.746L307.686 109.939L307.534 109.849L307.322 109.728C307.141 109.606 306.969 109.485 306.808 109.364C306.606 109.203 306.414 109.031 306.232 108.85C305.748 108.406 305.375 107.911 305.112 107.366C304.769 106.7 304.598 105.984 304.598 105.217V80.3623C304.598 79.7165 304.487 79.1211 304.265 78.5762C304.083 78.1523 303.831 77.7487 303.508 77.3652C303.145 76.9616 302.781 76.6589 302.418 76.457L306.929 73.127H306.959L306.989 73.1572L307.05 73.1875L307.201 73.2783L307.413 73.3994C307.595 73.5003 307.766 73.6214 307.928 73.7627C308.13 73.904 308.321 74.0654 308.503 74.2471C308.987 74.7113 309.361 75.2057 309.623 75.7305C309.966 76.4167 310.138 77.1432 310.138 77.9102V87.7188L315.466 83.7529ZM328.968 87.2949C328.06 88.849 327.605 90.8874 327.605 93.4102C327.605 94.5 327.696 95.6908 327.878 96.9824L333.085 92.9863L328.968 87.2949ZM328.271 99.2227C328.473 99.929 328.736 100.605 329.059 101.251C329.543 102.139 330.118 102.896 330.784 103.521C332.217 104.833 334.023 105.489 336.203 105.489C336.889 105.489 337.616 105.419 338.383 105.277L332.207 110C331.945 109.98 331.672 109.95 331.39 109.909C331.026 109.849 330.663 109.768 330.3 109.667C329.331 109.384 328.443 108.961 327.636 108.396C325.335 106.781 323.872 104.147 323.246 100.494C323.044 99.4043 322.943 98.2842 322.943 97.1338C322.943 95.7816 323.085 94.3991 323.367 92.9863C324.417 87.7389 327.333 84.4896 332.116 83.2383L338.171 91.624L338.02 91.7451L328.271 99.2227ZM352.218 83.7529C354.014 84.4593 355.316 85.4785 356.123 86.8105L351.552 90.2012C351.511 89.3737 350.936 88.637 349.826 87.9912L346.89 90.1406V102.704C346.89 103.33 347.001 103.925 347.223 104.49C347.404 104.934 347.657 105.338 347.979 105.701C348.343 106.145 348.706 106.468 349.069 106.67L344.559 110L344.528 109.97H344.498L344.438 109.939L344.286 109.849L344.074 109.728C343.893 109.606 343.721 109.485 343.56 109.364C343.358 109.203 343.156 109.031 342.954 108.85C342.49 108.406 342.127 107.911 341.864 107.366C341.521 106.7 341.35 105.984 341.35 105.217V91.0791C341.35 89.9287 340.986 88.9398 340.26 88.1123C339.896 87.6885 339.533 87.3757 339.17 87.1738L343.65 83.8438H343.681L343.771 83.9043L343.893 83.9648L344.074 84.0557C344.215 84.1566 344.367 84.2575 344.528 84.3584C344.71 84.4997 344.882 84.641 345.043 84.7822C345.467 85.1455 345.82 85.5492 346.103 85.9932C346.466 86.5381 346.698 87.1234 346.799 87.749L352.218 83.7529ZM365.417 94.4395C368.202 96.0339 369.716 97.6081 369.958 99.1621C370.119 100.09 370.2 100.928 370.2 101.675C370.2 101.998 370.18 102.311 370.14 102.613C369.978 103.885 369.524 104.904 368.777 105.671C368.656 105.772 367.032 107.003 363.903 109.364C363.318 109.788 362.672 110 361.966 110C361.078 110 360.079 109.657 358.969 108.971C357.011 107.78 355.951 106.327 355.79 104.611L359.998 101.493C360.139 101.998 360.382 102.502 360.725 103.007C361.653 104.339 362.743 105.166 363.994 105.489C364.216 105.55 364.418 105.58 364.6 105.58C365.165 105.58 365.578 105.338 365.841 104.854C365.901 104.753 365.952 104.601 365.992 104.399L366.022 104.188V103.976C366.043 103.854 366.053 103.733 366.053 103.612C366.053 103.431 366.033 103.259 365.992 103.098C365.629 101.281 364.337 99.818 362.117 98.708C359.897 97.5778 358.484 96.7907 357.879 96.3467C356.345 95.1761 355.578 93.8138 355.578 92.2598V91.9268C355.679 90.4938 356.224 89.3031 357.213 88.3545L357.516 88.082L363.358 83.7227C363.54 83.7025 363.732 83.6924 363.934 83.6924C365.165 83.6924 366.396 84.1364 367.627 85.0244C369.02 86.0133 369.968 87.1839 370.473 88.5361L366.144 91.7754C366.144 91.6947 365.841 91.2607 365.235 90.4736C364.569 89.6663 363.954 89.1012 363.389 88.7783C362.904 88.4554 362.269 88.2536 361.481 88.1729H361.36C361.138 88.1729 360.967 88.2132 360.846 88.2939L360.785 88.3545C360.361 88.6774 360.149 89.1214 360.149 89.6865V89.7471C360.17 89.9489 360.22 90.1709 360.301 90.4131C360.361 90.5745 360.442 90.7461 360.543 90.9277C361.027 91.6543 362.652 92.8249 365.417 94.4395ZM390.09 102.765C390.09 104.5 390.816 105.802 392.27 106.67L387.789 110L387.759 109.97H387.729C385.63 108.396 384.58 106.408 384.58 104.006V90.292C384.58 89.4242 383.995 88.6572 382.824 87.9912L379.888 90.1406V102.765C379.888 104.5 380.604 105.802 382.037 106.67L377.557 110L377.526 109.97H377.496C375.397 108.396 374.348 106.408 374.348 104.006V80.3623C374.348 79.7165 374.237 79.1211 374.015 78.5762C373.833 78.1523 373.581 77.7487 373.258 77.3652C372.895 76.9616 372.531 76.6589 372.168 76.457L376.648 73.127H376.709L376.739 73.1572L376.8 73.1875L376.951 73.2783L377.163 73.3994C377.325 73.5003 377.496 73.6214 377.678 73.7627C377.88 73.904 378.071 74.0654 378.253 74.2471C378.737 74.7113 379.111 75.2057 379.373 75.7305C379.716 76.4167 379.888 77.1432 379.888 77.9102V87.7188L385.216 83.7529C386.992 84.4391 388.284 85.4382 389.091 86.75C389.737 87.7995 390.06 89.0003 390.06 90.3525L390.09 102.765ZM400.776 102.765C400.776 103.915 401.14 104.904 401.866 105.731C402.229 106.155 402.593 106.468 402.956 106.67L398.445 110L398.415 109.97H398.385L398.324 109.939L398.173 109.849L397.961 109.728C397.779 109.606 397.608 109.485 397.446 109.364C397.244 109.203 397.053 109.031 396.871 108.85C396.387 108.406 396.013 107.911 395.751 107.366C395.408 106.7 395.236 105.984 395.236 105.217V91.0791C395.236 89.9287 394.873 88.9398 394.146 88.1123C393.783 87.6885 393.42 87.3757 393.057 87.1738L397.537 83.8438H397.567L397.628 83.874L397.688 83.9043L397.84 83.9951L398.052 84.1162C398.213 84.2171 398.385 84.3382 398.566 84.4795C398.768 84.641 398.96 84.8024 399.142 84.9639C399.626 85.4281 399.999 85.9225 400.262 86.4473C400.605 87.1335 400.776 87.86 400.776 88.627V102.765ZM397.779 76.5479C397.941 76.8102 398.132 77.0625 398.354 77.3047C398.657 77.6276 398.98 77.9001 399.323 78.1221C399.969 78.5055 400.675 78.6973 401.442 78.6973C401.866 78.6973 402.31 78.6367 402.774 78.5156C402.108 79.8477 401.22 80.8971 400.11 81.6641C399.283 82.2292 398.455 82.5117 397.628 82.5117C396.175 82.5117 394.712 81.6439 393.238 79.9082L397.779 76.5479ZM411.433 90.1104V104.611C412.058 104.369 412.674 104.248 413.279 104.248C414.228 104.248 415.146 104.551 416.034 105.156V90.292C416.034 89.4242 415.459 88.6471 414.309 87.9609L411.433 90.1104ZM411.433 113.391C411.433 114.016 411.544 114.602 411.766 115.146C411.947 115.59 412.2 115.994 412.522 116.357C412.886 116.781 413.249 117.094 413.612 117.296L409.102 120.626L409.071 120.596H409.041L408.98 120.565L408.829 120.475L408.617 120.354C408.436 120.232 408.264 120.111 408.103 119.99C407.901 119.829 407.709 119.657 407.527 119.476C407.043 119.032 406.67 118.537 406.407 117.992C406.064 117.326 405.893 116.61 405.893 115.843V90.9883C405.893 90.3626 405.782 89.7673 405.56 89.2021C405.378 88.7783 405.126 88.3747 404.803 87.9912C404.439 87.5876 404.076 87.2848 403.713 87.083L408.193 83.7529H408.224L408.314 83.8135L408.436 83.874L408.617 83.9648C408.779 84.0658 408.93 84.1667 409.071 84.2676C409.253 84.4089 409.424 84.5501 409.586 84.6914C410.03 85.0749 410.393 85.4886 410.676 85.9326C411.019 86.4775 411.251 87.0729 411.372 87.7188L416.7 83.7529C419.425 84.8226 421.009 86.5885 421.453 89.0508L421.483 103.945L413.4 110.03C413.077 109.506 412.422 108.961 411.433 108.396V113.391Z" fill="white"/>
<path d="M141 118.84H422.24V123.381H141V118.84Z" fill="white"/>
<mask id="path-4-inside-1_0_1" fill="white">
<rect x="15" y="22" width="533" height="764" rx="23"/>
</mask>
<rect x="15" y="22" width="533" height="764" rx="23" stroke="white" stroke-width="54" mask="url(#path-4-inside-1_0_1)"/>
<path d="M224.013 269.341C224.013 269.341 218.749 275.581 218.529 275.736C216.664 261.514 210.31 244.048 231.063 246.602C229.072 211.449 221.757 195.605 229.11 195.605C234.974 195.604 235.294 214.554 235.294 214.554C235.294 214.554 236.547 212.741 240.223 212.906C243.9 213.071 244.485 228.807 244.485 228.807C244.485 228.807 245.26 227.199 248.686 227.529C252.112 227.858 251.922 240.753 251.922 240.753C251.922 240.753 252.925 240.093 255.933 240.341C258.941 240.589 259.86 252.205 259.86 252.205C259.86 252.205 260.612 250.887 262.784 250.887C264.956 250.887 265.458 252.122 265.458 252.122L266.294 251.958C278.075 236.469 276.989 219.662 296.124 216.532C315.259 213.401 318.35 211.177 327.207 206.892C333.558 204.338 341.746 193.381 344.754 198.241C344.754 198.241 342.749 207.963 330.048 217.108C330.048 217.108 333.558 219.25 333.391 222.628C333.224 226.006 325.871 230.866 325.871 230.866C325.871 230.866 328.127 232.761 327.96 234.903C327.793 237.045 326.038 239.681 318.935 242.317C318.935 242.317 321.359 244.295 321.108 247.261C320.856 250.227 311.331 254.264 311.331 254.264C311.331 254.264 316.512 263.08 302.975 266.292C302.975 266.292 303.895 269.917 302.558 271.977C301.221 274.036 293.952 275.272 293.952 275.272C293.952 275.272 295.456 279.968 290.861 281.945C286.265 283.922 279.497 286.559 279.497 286.559L316.179 322.891C316.179 322.891 323.198 328.658 322.279 331.871C321.359 335.085 318.686 333.107 318.686 333.107C318.686 333.107 322.195 338.873 319.605 341.181C317.014 343.488 307.907 333.601 307.907 333.601C307.907 333.601 311.666 340.027 309.076 343.076C306.486 346.124 299.801 334.591 299.801 334.591C299.801 334.591 300.47 340.028 298.047 342.005C295.623 343.982 288.103 331.048 288.103 331.048C288.103 331.048 285.847 335.332 281.502 336.321C277.157 337.309 274.734 323.304 274.734 323.304C274.734 323.304 275.236 323.799 270.389 325.776C266.379 327.177 265.208 307.651 265.627 306.827C243.808 301.06 235.273 300.343 230.449 293.233C225.624 286.123 225.435 276.756 225.435 276.756C225.435 276.756 225.852 269.671 224.014 269.342L224.013 269.341Z" fill="#5577B5"/>
<path d="M306.61 261.926C308.427 259.887 299.278 260.629 298.839 257.663C298.4 254.697 305.858 250.063 303.915 248.518C301.972 246.974 293.825 254.759 293.513 257.045C293.376 258.041 294.578 260.752 295.894 261.494C297.21 262.235 293.576 265.696 295.957 265.572C298.339 265.449 299.313 259.702 302.475 262.607C305.637 265.511 305.815 262.82 306.611 261.927L306.61 261.926Z" fill="#F9D9AE"/>
<path d="M227.44 260.855C228.778 260.855 229.863 259.786 229.863 258.466C229.863 257.146 228.778 256.076 227.44 256.076C226.101 256.076 225.016 257.146 225.016 258.466C225.016 259.786 226.101 260.855 227.44 260.855Z" fill="#F9D9AE"/>
<path d="M219.611 160.162C219.611 160.162 221.533 147.392 254.058 140.245C255.29 140.842 255.478 141.848 255.457 142.098C252.575 145.62 242.438 166.835 218.702 167.298C220.707 161.119 219.611 160.161 219.611 160.161L219.611 160.162Z" fill="#5577B5"/>
<path d="M159.763 272.821C138.935 273.919 131.227 245.805 126.308 233.725C128.721 232.087 127.978 230.614 128.155 230.57C131.837 229.659 154.567 239.283 159.454 257.785C160.564 261.75 159.763 272.821 159.763 272.821H159.763Z" fill="#5577B5"/>
<path d="M188.766 192.13C203.575 202.841 235.911 192.542 236.83 189.494C237.239 187.517 237.081 187.104 236.83 186.611C234.908 187.105 209.507 173.594 189.536 190.236C189.536 190.236 188.766 191.801 188.766 192.13Z" fill="#5577B5"/>
<path d="M165.461 227.797C174.99 228.653 184.926 228.306 195.075 222.903C206.251 216.952 215.846 208.271 216.097 207.035C216.347 205.798 215.533 203.76 214.656 203.018C207.449 206.17 182.193 199.249 168.156 224.212L165.461 227.796V227.797Z" fill="#5577B5"/>
<path d="M169.154 313.774C144.52 315.316 137.708 293.189 126.838 284.887C126.985 283.263 127.767 282.901 128.575 282.055C155.847 287.978 161.994 295.076 164.823 298.542C165.152 297.518 169.601 312.76 169.155 313.773L169.154 313.774Z" fill="#5577B5"/>
<path d="M160.042 273.418C163.869 247.188 189.305 244.964 200.702 235.393C202.425 235.909 202.642 236.812 203.376 237.849C190.892 265.186 181.849 270.062 177.472 272.263C178.505 272.837 161.038 274.113 160.042 273.418Z" fill="#5577B5"/>
<path d="M168.063 307.62C165.034 291.328 183.146 274.583 190.791 262.472C192.506 262.202 193.878 262.596 194.635 264.12C194.635 264.12 195.387 298.393 170.319 313.552C169.546 310.669 168.522 309.516 168.063 307.62Z" fill="#5577B5"/>
<path d="M165.379 228.153C142.744 213.863 151.217 190.111 147.096 175.92C148.286 174.588 149.208 174.766 150.47 174.537C170.544 197.055 171.305 207.189 171.526 212.029C172.483 211.339 166.434 227.546 165.379 228.153Z" fill="#5577B5"/>
<path d="M189.519 192.341C183.672 184.874 178.634 176.424 177.81 165.08C176.902 152.589 179.179 139.945 180.102 139.073C181.025 138.202 183.207 137.785 184.313 138.116C185.485 145.803 204.965 163.097 191.14 188.175L189.52 192.341L189.519 192.341Z" fill="#5577B5"/>
<path d="M190.774 347.031C166.69 358.797 150.41 339.4 135.951 335.571C135.405 333.88 136.036 333.191 136.487 332.007C166.403 326.645 175.605 331.224 179.925 333.531C179.819 332.366 190.79 345.828 190.774 347.032V347.031Z" fill="#5577B5"/>
<path d="M211.969 293.618C212.837 303.013 212.486 312.809 207.005 322.816C200.971 333.836 192.166 343.297 190.912 343.544C189.658 343.791 187.591 342.988 186.838 342.123C190.034 335.017 183.015 310.115 208.334 296.275L211.968 293.618H211.969Z" fill="#5577B5"/>
<path d="M342.695 160.162C342.695 160.162 340.773 147.392 308.248 140.245C307.016 140.842 306.828 141.848 306.849 142.098C309.731 145.62 319.868 166.835 343.604 167.298C341.599 161.119 342.695 160.161 342.695 160.161L342.695 160.162Z" fill="#5577B5"/>
<path d="M402.545 272.821C423.373 273.919 431.081 245.805 436 233.725C433.587 232.087 434.33 230.614 434.152 230.57C430.471 229.659 407.741 239.283 402.853 257.785C401.744 261.75 402.545 272.821 402.545 272.821H402.545Z" fill="#5577B5"/>
<path d="M373.54 192.13C358.731 202.841 326.395 192.542 325.476 189.494C325.067 187.517 325.225 187.104 325.476 186.611C327.397 187.105 352.799 173.594 372.769 190.236C372.769 190.236 373.54 191.801 373.54 192.13Z" fill="#5577B5"/>
<path d="M396.847 227.797C387.318 228.653 377.382 228.306 367.233 222.903C356.057 216.952 346.461 208.271 346.211 207.035C345.961 205.798 346.775 203.76 347.652 203.018C354.859 206.17 380.115 199.249 394.152 224.212L396.847 227.796V227.797Z" fill="#5577B5"/>
<path d="M393.154 313.774C417.788 315.316 424.6 293.189 435.469 284.887C435.323 283.263 434.541 282.901 433.733 282.055C406.461 287.978 400.314 295.076 397.485 298.542C397.156 297.518 392.707 312.76 393.153 313.773L393.154 313.774Z" fill="#5577B5"/>
<path d="M402.266 273.418C398.438 247.188 373.003 244.964 361.605 235.393C359.883 235.909 359.665 236.812 358.931 237.849C371.416 265.186 380.458 270.062 384.836 272.263C383.802 272.837 401.269 274.113 402.266 273.418Z" fill="#5577B5"/>
<path d="M394.245 307.62C397.274 291.328 379.162 274.583 371.517 262.472C369.802 262.202 368.43 262.596 367.673 264.12C367.673 264.12 366.921 298.393 391.989 313.552C392.762 310.669 393.785 309.516 394.245 307.62Z" fill="#5577B5"/>
<path d="M396.928 228.153C419.563 213.863 411.091 190.111 415.211 175.92C414.022 174.588 413.099 174.766 411.838 174.537C391.763 197.055 391.003 207.189 390.782 212.029C389.824 211.339 395.874 227.546 396.928 228.153Z" fill="#5577B5"/>
<path d="M372.788 192.341C378.636 184.874 383.674 176.424 384.498 165.08C385.406 152.589 383.129 139.945 382.206 139.073C381.283 138.202 379.101 137.785 377.995 138.116C376.822 145.803 357.343 163.097 371.168 188.175L372.788 192.341L372.788 192.341Z" fill="#5577B5"/>
<path d="M371.534 347.031C395.617 358.797 411.897 339.4 426.357 335.571C426.902 333.88 426.272 333.191 425.821 332.007C395.904 326.645 386.703 331.224 382.382 333.531C382.488 332.366 371.518 345.828 371.534 347.032V347.031Z" fill="#5577B5"/>
<path d="M350.339 293.618C349.47 303.013 349.822 312.809 355.302 322.816C361.337 333.836 370.142 343.297 371.396 343.544C372.65 343.791 374.717 342.988 375.469 342.123C372.273 335.017 379.292 310.115 353.974 296.275L350.339 293.618H350.339Z" fill="#5577B5"/>
<path d="M336.563 161.46C374.796 181.353 400.855 220.939 400.855 266.526C400.855 332.093 346.947 385.245 280.449 385.245C213.951 385.245 160.042 332.092 160.042 266.526C160.042 218.148 189.389 176.529 231.488 158.032" stroke="#863259" stroke-width="2" stroke-miterlimit="10" stroke-linecap="round"/>
<path d="M103 457H355" stroke="#5577B5" stroke-width="8" stroke-linecap="round"/>
<path d="M103 457H355" stroke="#5577B5" stroke-width="8" stroke-linecap="round"/>
<path d="M103 494H474" stroke="#5577B5" stroke-width="8" stroke-linecap="round"/>
<path d="M103 494H474" stroke="#5577B5" stroke-width="8" stroke-linecap="round"/>
<path d="M103 531H436" stroke="#5577B5" stroke-width="8" stroke-linecap="round"/>
<path d="M103 531H436" stroke="#5577B5" stroke-width="8" stroke-linecap="round"/>
<path d="M103 568H481" stroke="#5577B5" stroke-width="8" stroke-linecap="round"/>
<path d="M103 568H481" stroke="#5577B5" stroke-width="8" stroke-linecap="round"/>
<path d="M103 605H481" stroke="#5577B5" stroke-width="8" stroke-linecap="round"/>
<path d="M103 605H481" stroke="#5577B5" stroke-width="8" stroke-linecap="round"/>
</svg>