<?xml version="1.0" encoding="UTF-8"?>
<svg xmlns="http://www.w3.org/2000/svg" viewBox="0 0 152.367 109.552">
  <defs>
    <style>
      .cls-1 {
        fill: #ec634d;
      }

      .cls-2 {
        fill: #4b3b3c;
      }

      .cls-3 {
        fill: #fac8a9;
      }

      .cls-4 {
        fill: #facbab;
      }

      .cls-5 {
        fill: #ebb899;
      }

      .cls-6 {
        fill: #f3c6a4;
      }

      .cls-7 {
        fill: #fbe3c0;
      }
    </style>
  </defs>
  <g id="Calque_1" data-name="Calque 1"/>
  <g id="Calque_2" data-name="Calque 2">
    <g id="Calque_2-2" data-name="Calque 2">
      <path class="cls-2" d="M0,18.204V105.177H67.486s1.156,4.376,8.697,4.376,9.908-4.596,9.908-4.596h66.275V15.342H3.853l-3.853,2.862Z"/>
    </g>
    <g id="Calque_3" data-name="Calque 3">
      <path class="cls-7" d="M4.679,11.819V101.984s32.364,1.64,47.116-3.975,19.82,6.287,19.82,6.287h8.367s5.809-13.384,18.597-7.281,47.678,4.859,47.678,4.859V11.819h-2.972v-3.193h-3.523v-2.972s-29.064,2.422-42.936-3.963-19.046,7.376-19.046,7.376h-2.312s-6.706-13.608-23.77-6.342S12.165,6.534,12.165,6.534v2.862h-3.413v2.092l-4.073,.33Z"/>
    </g>
    <g id="Calque_5" data-name="Calque 5">
      <path class="cls-3" d="M76.349,95.489V9.067h-.881S70.451-1.09,58.073,.844l-.55,3.818,2.532,84.661c9.138-3.303,16.294,6.165,16.294,6.165Z"/>
      <path class="cls-4" d="M119.615,94.057V5.932c-8.061-.382-16.827-1.497-22.789-4.242-2.427-1.117-4.581-1.607-6.495-1.673V89.103s15.962-1.431,29.284,4.954Z"/>
    </g>
    <g id="Calque_4" data-name="Calque 4">
      <path class="cls-1" d="M51.698,2.725c-2.368,1.008-4.842,1.804-7.344,2.437V59.599l7.445-9.248,6.275,6.716V.844c-1.943,.303-4.061,.894-6.376,1.88Z"/>
    </g>
    <g id="Calque_6" data-name="Calque 6">
      <path class="cls-5" d="M8.642,99.837c9.33-1.239,27.495-1.734,27.495-1.734H11.945V8.929h-3.303V99.837Z"/>
      <path class="cls-6" d="M122.642,98.681s6.303-1.404,20.422,1.046l.22-91.101h-3.523l-.33,88.569-16.789,1.486Z"/>
    </g>
  </g>
</svg>