<svg width="211" height="250" viewBox="0 0 211 250" fill="none" xmlns="http://www.w3.org/2000/svg">
<path d="M94.5005 9.56883C96.5876 13.7839 98.7997 17.4616 98.3725 19.9007C99.9633 19.3727 103.512 10.5319 97.8165 7.22827C95.9329 8.55749 95.0865 9.15482 94.5005 9.56883Z" fill="#7D170F"/>
<path d="M75.3688 24.7929C75.3688 24.7929 76.5625 23.4267 83.5264 25.319C89.1884 26.8578 99.7804 31.981 107.646 30.1984C125.185 26.2239 125.703 13.9904 125.703 13.9904C125.703 13.9904 122.062 0.00187571 123.75 2.66049e-07C125.438 -0.00187518 127.837 9.9122 128.083 11.7473C128.212 12.1576 128.877 12.0732 129.351 11.6156C130.205 10.5058 136.51 1.92421 138.017 3.15028C139.784 5.61509 135.28 9.13858 130.433 15.0828C126.971 19.6678 119.869 35.1534 103.921 33.6436C87.9731 32.1339 83.837 27.0435 75.6414 28.3497C75.6414 28.3497 73.7705 27.759 73.848 27.5653C73.9256 27.3717 75.3688 24.792 75.3688 24.792V24.7929Z" fill="#7D170F"/>
<path d="M40.9033 32.5727C40.9033 32.5727 41.369 12.5968 48.871 11.4608C59.3741 9.91215 85.8642 3.25337 89.5374 2.58243C93.2111 1.91149 95.7978 1.49843 97.8158 7.22791C97.8158 7.22791 77.1977 21.7584 76.3185 22.5972C75.4387 23.436 75.3611 24.52 75.2578 26.0686C75.1544 27.6173 75.2578 28.2367 76.2926 28.9076C77.3275 29.5785 99.0057 37.786 99.0057 37.786C99.0057 37.786 101.011 40.4186 97.5568 41.0764C94.1031 41.7347 64.444 42.3541 64.444 42.3541L40.9028 32.5727H40.9033Z" fill="#F6F6F6"/>
<path d="M40.9035 34.018C40.9035 34.018 -8.29551 68.5717 1.22209 135.019C10.7397 201.466 77.9221 219.197 77.9221 219.197C77.9221 219.197 130.514 218.809 135.507 218.5C241.7 182.884 223.903 42.3543 150.641 31.1274L150.253 32.8308C213.9 89.7056 199.181 140.881 176.634 169.696C161.14 189.496 141.948 196.511 141.948 196.511L68.6865 195.117C-7.67939 154.391 19.8451 61.0661 64.4437 42.3543L40.9026 32.5729V34.0184L40.9035 34.018Z" fill="#AD866C"/>
<path d="M56.8815 46.3364L56.8135 46.38L56.8815 46.3364Z" fill="#FDFDFD"/>
<path d="M151.402 31.255C151.148 31.2128 150.896 31.1663 150.641 31.127L150.252 32.8303C150.632 33.1698 151.007 33.5088 151.381 33.8478C151.506 32.9504 151.468 31.9854 151.402 31.2545V31.255Z" fill="#FDFDFD"/>
<path d="M163.458 34.5929C163.907 35.231 164.313 35.8658 164.546 36.3703C165.17 37.7183 161.539 41.0927 160.181 42.2892C161.359 43.49 162.503 44.6875 163.613 45.8821C165.23 44.0437 168.122 40.7969 168.954 40.1386C170.128 39.2093 177.225 47.0036 178.079 47.2615C178.933 47.5194 179.039 49.4295 178.506 50.2552C178.05 50.9599 173.947 55.3058 172.75 56.568C173.746 57.8428 174.705 59.1139 175.628 60.3798C177.469 58.8926 180.565 56.3621 180.978 55.8422C181.57 55.0957 183.328 53.7351 183.83 54.6456C184.332 55.5557 189.853 61.641 191.123 63.6576C192.158 65.2991 185.192 69.4457 182.567 70.9306C183.409 72.3639 184.208 73.7906 184.961 75.2099C186.857 74.0101 189.867 72.1468 191.708 71.2119C194.553 69.7669 194.727 71.2119 194.727 71.2119C194.727 71.2119 198.382 79.4189 199.934 81.69C201.261 83.6325 192.869 85.9506 190.183 86.6464C190.753 88.135 191.277 89.6143 191.756 91.0837C193.761 90.6293 198.381 89.5425 199.106 89.0197C200.038 88.3488 201.745 88.4004 202.159 90.31C202.573 92.2197 204.28 98.2075 204.849 99.8073C205.418 101.408 205.263 102.027 203.452 102.336C202.073 102.572 197.276 103.407 194.883 103.905C195.13 105.43 195.331 106.942 195.488 108.44C197.523 108.256 202.182 107.859 204.332 107.859C205.082 107.732 206.143 107.851 206.169 110.033C206.195 112.216 206.505 118.792 206.505 120.35C206.505 121.977 199.119 122.066 195.733 121.98C195.643 123.296 195.521 124.6 195.367 125.89C197.844 126.127 203.21 126.668 204.901 127.061C207.126 127.577 204.332 136.507 203.866 139.552C203.478 142.087 195.458 139.544 192.781 138.621C192.388 139.984 191.961 141.326 191.506 142.65C194.668 143.78 200.639 145.967 201.561 146.674C202.824 147.644 198.483 155.562 197.721 158.379C197.106 160.649 189.163 156.717 186.103 155.105C185.409 156.423 184.689 157.713 183.946 158.975C187.033 160.463 192.799 163.256 194.036 163.966C195.743 164.947 188.81 174.754 187.672 176.199C186.748 177.373 179.686 171.64 176.895 169.359C176.809 169.471 176.722 169.584 176.634 169.696C175.836 170.716 175.027 171.7 174.213 172.653C176.027 175.126 180.861 178.823 182.757 180.071C185.189 181.671 176.652 190.394 174.428 191.117C174.213 189.191 167.103 183.968 164.678 182.239C163.804 182.995 162.937 183.715 162.079 184.404C163.53 186.46 168.338 193.253 169.423 194.498C170.703 195.969 159.964 202.202 158.829 203.015C157.094 202.525 152.292 194.592 150.834 192.127C149.612 192.835 148.483 193.449 147.468 193.975L153.63 205.763L141.639 211.261C141.639 211.261 135.663 198.873 135.702 198.679L135.324 196.385L71.1317 195.164L82.508 199.972C82.508 199.972 77.5913 213.534 77.173 214.519C76.7548 215.505 64.6454 210.081 64.6454 210.081C63.4963 209.683 65.8278 205.865 67.4947 201.951C68.6879 199.15 69.4554 196.273 69.7369 195.137L68.6875 195.117C68.109 194.809 67.5365 194.497 66.9698 194.182C65.5505 196.93 60.9228 205.67 59.0623 206.488C56.8755 206.741 50.7971 202.266 48.4266 200.703C47.6751 200.208 48.5013 198.478 49.4549 196.429C51.0997 192.894 54.0201 188.27 55.1212 186.564C54.6113 186.185 54.1079 185.804 53.6112 185.419L53.2122 185.993C53.2122 185.993 43.1542 195.784 41.6536 195.15C40.153 194.515 36.2711 189.764 34.8613 188.915C33.4514 188.067 31.838 187.301 33.6126 185.108C35.0384 183.346 40.6888 177.782 42.8553 175.662C42.2683 175.036 41.6921 174.405 41.131 173.768C41.2001 173.894 41.2405 173.969 41.2405 173.969C41.2405 173.969 29.023 181.823 27.8081 181.31C25.7671 178.177 23.4732 175.441 21.7677 172.113C20.0623 168.786 32.6191 162.907 32.6191 162.907C32.7817 162.927 32.9551 162.985 33.1356 163.07C32.535 162.112 31.9588 161.146 31.4052 160.174C31.3666 160.379 31.2858 160.529 31.1448 160.596L17.469 165.168C17.469 165.168 12.5946 154.614 11.7567 154.008C12.5739 152.083 13.5613 151.743 13.5613 151.743C13.5613 151.743 21.6202 148.843 24.3459 146.57C24.6119 146.53 25.1054 147.014 25.7107 147.817C25.0471 145.978 24.4536 144.127 23.93 142.265C19.5914 146.353 9.16204 146.495 9.16204 146.495L7.29959 134.339C7.13699 133.367 11.1166 133.504 14.9486 132.515C17.7487 131.793 20.465 130.318 21.435 129.76C21.3302 128.898 21.239 128.035 21.1606 127.172C18.338 127.323 7.24038 127.912 6.30516 127.912C5.23318 127.912 5.51469 114.672 5.51469 114.672C5.43385 113.461 9.86698 114.113 14.1295 114.118C16.9243 114.121 19.6379 113.771 20.9655 113.57C21.0257 112.582 21.1018 111.596 21.1935 110.613C18.2247 110.392 8.15069 109.548 6.6534 108.142C5.56685 106.232 7.32591 98.9024 7.84333 96.115C8.00735 95.2317 9.92619 95.3156 12.1895 95.3925C16.1104 95.5252 21.5478 96.4113 23.531 96.7541C23.6814 96.1408 23.8351 95.5294 23.9968 94.9204L23.2871 94.7727C23.2871 94.7727 10.3266 89.3526 10.3266 87.7271C10.3266 86.1015 13.198 80.681 13.4311 79.0555C13.6642 77.4299 13.7418 75.6487 16.4577 76.4228C18.6345 77.0431 25.941 80.049 28.7588 81.2188C29.07 80.5019 29.3877 79.7897 29.7143 79.0846C29.7082 79.0803 17.6993 70.9254 17.6993 69.6093C19.7949 66.512 21.4247 63.3378 23.8304 60.4731C26.2361 57.6084 36.5606 66.8496 36.5606 66.8496V66.852C37.071 66.0877 37.5913 65.3352 38.1214 64.5949L38.119 64.5935L28.5648 53.8143C28.5648 53.8143 36.4032 45.2201 36.6358 44.2134C38.7314 44.2134 39.4297 44.9875 39.4297 44.9875C39.4297 44.9875 45.2502 51.259 48.4116 52.8761V52.8785C48.9652 52.3707 49.5244 51.8751 50.0889 51.3913C48.1822 49.0901 41.318 40.7486 41.318 39.9032C41.318 38.9214 41.8354 39.5417 42.6113 39.0255C43.3872 38.5093 42.4563 40.0579 43.3872 40.471C44.3187 40.8841 59.9951 41.8129 59.9951 41.8129L61.1052 43.9129C62.2067 43.3484 63.3201 42.8266 64.4447 42.3549L40.9035 32.5735V34.019C40.9035 34.019 -8.29551 68.5727 1.22209 135.02C10.7397 201.467 77.9222 219.198 77.9222 219.198C77.9222 219.198 130.514 218.81 135.507 218.501C235.199 185.066 225.616 59.1739 163.457 34.5938L163.458 34.5929Z" fill="#F6F6F6"/>
<path d="M59.7166 44.6528C59.6918 44.6664 59.6665 44.68 59.6416 44.6941C59.6665 44.68 59.6918 44.6664 59.7166 44.6528Z" fill="#FDFDFD"/>
<path d="M56.8815 46.3364L56.8135 46.38L56.8815 46.3364Z" fill="#FDFDFD"/>
<path d="M151.402 31.255C151.148 31.2128 150.896 31.1663 150.641 31.127L150.252 32.8303C150.632 33.1698 151.007 33.5088 151.381 33.8478C151.506 32.9504 151.468 31.9854 151.402 31.2545V31.255Z" fill="#FDFDFD"/>
<path d="M163.458 34.5929C163.907 35.231 164.313 35.8658 164.546 36.3703C165.17 37.7183 161.539 41.0927 160.181 42.2892C161.359 43.49 162.503 44.6875 163.613 45.8821C165.23 44.0437 168.122 40.7969 168.954 40.1386C170.128 39.2093 177.225 47.0036 178.079 47.2615C178.933 47.5194 179.039 49.4295 178.506 50.2552C178.05 50.9599 173.947 55.3058 172.75 56.568C173.746 57.8428 174.705 59.1139 175.628 60.3798C177.469 58.8926 180.565 56.3621 180.978 55.8422C181.57 55.0957 183.328 53.7351 183.83 54.6456C184.332 55.5557 189.853 61.641 191.123 63.6576C192.158 65.2991 185.192 69.4457 182.567 70.9306C183.409 72.3639 184.208 73.7906 184.961 75.2099C186.857 74.0101 189.867 72.1468 191.708 71.2119C194.553 69.7669 194.727 71.2119 194.727 71.2119C194.727 71.2119 198.382 79.4189 199.934 81.69C201.261 83.6325 192.869 85.9506 190.183 86.6464C190.753 88.135 191.277 89.6143 191.756 91.0837C193.761 90.6293 198.381 89.5425 199.106 89.0197C200.038 88.3488 201.745 88.4004 202.159 90.31C202.573 92.2197 204.28 98.2075 204.849 99.8073C205.418 101.408 205.263 102.027 203.452 102.336C202.073 102.572 197.276 103.407 194.883 103.905C195.13 105.43 195.331 106.942 195.488 108.44C197.523 108.256 202.182 107.859 204.332 107.859C205.082 107.732 206.143 107.851 206.169 110.033C206.195 112.216 206.505 118.792 206.505 120.35C206.505 121.977 199.119 122.066 195.733 121.98C195.643 123.296 195.521 124.6 195.367 125.89C197.844 126.127 203.21 126.668 204.901 127.061C207.126 127.577 204.332 136.507 203.866 139.552C203.478 142.087 195.458 139.544 192.781 138.621C192.388 139.984 191.961 141.326 191.506 142.65C194.668 143.78 200.639 145.967 201.561 146.674C202.824 147.644 198.483 155.562 197.721 158.379C197.106 160.649 189.163 156.717 186.103 155.105C185.409 156.423 184.689 157.713 183.946 158.975C187.033 160.463 192.799 163.256 194.036 163.966C195.743 164.947 188.81 174.754 187.672 176.199C186.748 177.373 179.686 171.64 176.895 169.359C176.809 169.471 176.722 169.584 176.634 169.696C175.836 170.716 175.027 171.7 174.213 172.653C176.027 175.126 180.861 178.823 182.757 180.071C185.189 181.671 176.652 190.394 174.428 191.117C174.213 189.191 167.103 183.968 164.678 182.239C163.804 182.995 162.937 183.715 162.079 184.404C163.53 186.46 168.338 193.253 169.423 194.498C170.703 195.969 159.964 202.202 158.829 203.015C157.094 202.525 152.292 194.592 150.834 192.127C149.612 192.835 148.483 193.449 147.468 193.975L153.63 205.763L141.639 211.261C141.639 211.261 135.663 198.873 135.702 198.679L135.324 196.385L71.1317 195.164L82.508 199.972C82.508 199.972 77.5913 213.534 77.173 214.519C76.7548 215.505 64.6454 210.081 64.6454 210.081C63.4963 209.683 65.8278 205.865 67.4947 201.951C68.6879 199.15 69.4554 196.273 69.7369 195.137L68.6875 195.117C68.109 194.809 67.5365 194.497 66.9698 194.182C65.5505 196.93 60.9228 205.67 59.0623 206.488C56.8755 206.741 50.7971 202.266 48.4266 200.703C47.6751 200.208 48.5013 198.478 49.4549 196.429C51.0997 192.894 54.0201 188.27 55.1212 186.564C54.6113 186.185 54.1079 185.804 53.6112 185.419L53.2122 185.993C53.2122 185.993 43.1542 195.784 41.6536 195.15C40.153 194.515 36.2711 189.764 34.8613 188.915C33.4514 188.067 31.838 187.301 33.6126 185.108C35.0384 183.346 40.6888 177.782 42.8553 175.662C42.2683 175.036 41.6921 174.405 41.131 173.768C41.2001 173.894 41.2405 173.969 41.2405 173.969C41.2405 173.969 29.023 181.823 27.8081 181.31C25.7671 178.177 23.4732 175.441 21.7677 172.113C20.0623 168.786 32.6191 162.907 32.6191 162.907C32.7817 162.927 32.9551 162.985 33.1356 163.07C32.535 162.112 31.9588 161.146 31.4052 160.174C31.3666 160.379 31.2858 160.529 31.1448 160.596L17.469 165.168C17.469 165.168 12.5946 154.614 11.7567 154.008C12.5739 152.083 13.5613 151.743 13.5613 151.743C13.5613 151.743 21.6202 148.843 24.3459 146.57C24.6119 146.53 25.1054 147.014 25.7107 147.817C25.0471 145.978 24.4536 144.127 23.93 142.265C19.5914 146.353 9.16204 146.495 9.16204 146.495L7.29959 134.339C7.13699 133.367 11.1166 133.504 14.9486 132.515C17.7487 131.793 20.465 130.318 21.435 129.76C21.3302 128.898 21.239 128.035 21.1606 127.172C18.338 127.323 7.24038 127.912 6.30516 127.912C5.23318 127.912 5.51469 114.672 5.51469 114.672C5.43385 113.461 9.86698 114.113 14.1295 114.118C16.9243 114.121 19.6379 113.771 20.9655 113.57C21.0257 112.582 21.1018 111.596 21.1935 110.613C18.2247 110.392 8.15069 109.548 6.6534 108.142C5.56685 106.232 7.32591 98.9024 7.84333 96.115C8.00735 95.2317 9.92619 95.3156 12.1895 95.3925C16.1104 95.5252 21.5478 96.4113 23.531 96.7541C23.6814 96.1408 23.8351 95.5294 23.9968 94.9204L23.2871 94.7727C23.2871 94.7727 10.3266 89.3526 10.3266 87.7271C10.3266 86.1015 13.198 80.681 13.4311 79.0555C13.6642 77.4299 13.7418 75.6487 16.4577 76.4228C18.6345 77.0431 25.941 80.049 28.7588 81.2188C29.07 80.5019 29.3877 79.7897 29.7143 79.0846C29.7082 79.0803 17.6993 70.9254 17.6993 69.6093C19.7949 66.512 21.4247 63.3378 23.8304 60.4731C26.2361 57.6084 36.5606 66.8496 36.5606 66.8496V66.852C37.071 66.0877 37.5913 65.3352 38.1214 64.5949L38.119 64.5935L28.5648 53.8143C28.5648 53.8143 36.4032 45.2201 36.6358 44.2134C38.7314 44.2134 39.4297 44.9875 39.4297 44.9875C39.4297 44.9875 45.2502 51.259 48.4116 52.8761V52.8785C48.9652 52.3707 49.5244 51.8751 50.0889 51.3913C48.1822 49.0901 41.318 40.7486 41.318 39.9032C41.318 38.9214 41.8354 39.5417 42.6113 39.0255C43.3872 38.5093 42.4563 40.0579 43.3872 40.471C44.3187 40.8841 59.9951 41.8129 59.9951 41.8129L61.1052 43.9129C62.2067 43.3484 63.3201 42.8266 64.4447 42.3549L40.9035 32.5735V34.019C40.9035 34.019 -8.29551 68.5727 1.22209 135.02C10.7397 201.467 77.9222 219.198 77.9222 219.198C77.9222 219.198 130.514 218.81 135.507 218.501C235.199 185.066 225.616 59.1739 163.457 34.5938L163.458 34.5929Z" fill="#F6F6F6"/>
<path d="M59.7166 44.6528C59.6918 44.6664 59.6665 44.68 59.6416 44.6941C59.6665 44.68 59.6918 44.6664 59.7166 44.6528Z" fill="#FDFDFD"/>
<path d="M65.389 18.5086C65.389 21.0733 63.0608 23.1527 60.1894 23.1527C57.3179 23.1527 54.9897 21.0738 54.9897 18.5086C54.9897 17.4045 55.4212 16.3898 56.1421 15.5928C57.5896 15.7001 61.5085 16.184 64.9143 16.5666C65.2193 17.1574 65.3895 17.8152 65.3895 18.5086H65.389Z" fill="#7D170F"/>
<path d="M163.265 100.089C163.265 70.6473 137.105 47.0771 105.473 47.0771C73.8415 47.0771 48.1982 70.9441 48.1982 100.385L47.5643 105.526C47.5643 105.526 52.027 140.866 50.9832 142.51C49.3938 143.774 39.1957 150.777 43.6453 159.139C43.6453 159.139 44.6698 161.678 45.6186 165.407C47.2414 171.783 50.4517 180.736 61.0295 179.89C61.0295 179.89 66.7207 178.341 68.5832 179.477C68.5832 180.922 68.7899 194.549 68.7899 194.549C68.7899 194.549 72.7132 199.876 75.2942 209.001C76.1636 212.076 77.7145 214.75 77.7925 218.913C77.7925 218.913 69.3074 218.293 68.8933 216.641C68.9967 218.293 68.7984 246.89 103.511 249.677C138.224 252.464 141.328 216.538 141.328 216.538L133.257 218.913C133.257 218.913 136.671 202.498 136.982 199.091C138.224 198.678 141.225 197.233 141.225 197.233C141.225 197.233 141.639 183.606 141.225 180.096C141.225 180.096 145.674 178.135 154.159 179.89C162.748 178.651 164.093 170.289 164.093 170.289C164.093 170.289 164.68 167.965 165.901 163.823C167.609 158.025 170.302 151.088 165.128 146.855C165.128 146.855 159.334 145.306 160.265 136.532C161.196 127.757 163.265 100.089 163.265 100.089L163.265 100.089Z" fill="white" stroke="#1D1D1B" stroke-width="0.25" stroke-miterlimit="10"/>
<path d="M105.473 47.0774C102.056 47.0774 98.71 47.3573 95.4579 47.8908C95.432 47.9227 86.1992 59.3006 85.3721 70.4342C87.3901 70.4342 101.628 68.0083 103.33 68.4209C105.032 68.8335 112.147 69.6854 112.095 70.5373C112.043 71.3892 104.722 85.8419 104.722 85.8419L104.826 95.0555C104.826 95.0555 122.546 67.7495 122.313 66.0461C121.33 64.73 109.559 59.7488 107.49 59.6715C105.421 59.5941 100.816 60.2393 100.816 60.2393C100.816 60.2393 109.442 48.844 109.274 47.1951C108.016 47.1196 106.75 47.0769 105.472 47.0769L105.473 47.0774Z" fill="#7C170F"/>
<path d="M154.794 72.4726L101.748 125.046L95.6167 129.305C95.6167 129.305 92.0272 121.697 77.3015 121.485C62.5754 121.272 59.2189 135.789 59.2189 135.789C59.2189 135.789 51.8598 134.475 50.6694 133.39L50.6704 133.405C50.8358 135.276 50.9678 136.974 51.0492 138.386L51.0501 138.399C51.0501 138.399 57.5694 140.396 58.3645 140.299C59.1602 140.203 53.5526 158.339 70.3936 165.54C77.1455 166.16 76.9129 165.772 77.9214 165.54C78.9299 165.308 97.944 152.92 98.3322 145.487C98.7204 138.054 97.0905 133.64 97.0905 133.64L104.774 128.608L157.195 76.4453C156.454 75.087 155.654 73.7606 154.793 72.4722L154.794 72.4726Z" fill="#7D170F"/>
<path d="M111.578 139.473L141.793 125.02C141.793 125.02 142.362 124.195 144.018 125.691C151.106 132.556 158.091 156.92 138.585 164.559L131.43 164.817C131.43 164.817 114.113 154.679 111.578 144.805V139.473V139.473Z" fill="#7D170F"/>
<path d="M105.007 183.864C105.007 183.864 102.989 192.33 97.091 189.336C88.9683 184.174 94.6162 175.299 94.6162 175.299L94.7629 175.038C94.7629 175.038 99.6913 170.044 100.221 166.366C100.752 162.689 102.743 159.336 103.331 159.295C105.68 158.572 105.163 158.92 106.792 159.153C107.481 159.251 109.185 162.948 110.472 166.818C111.759 170.689 110.653 170.283 113.603 173.186C116.552 176.089 118.089 179.398 117.502 183.271C117.02 186.459 113.778 189.977 111.798 189.977C107.413 189.977 105.007 183.864 105.007 183.864Z" fill="#7D170F"/>
<path d="M133.309 157.333C139.539 157.333 144.588 152.295 144.588 146.08C144.588 139.866 139.539 134.828 133.309 134.828C127.08 134.828 122.03 139.866 122.03 146.08C122.03 152.295 127.08 157.333 133.309 157.333Z" fill="#FAFAFA"/>
<path d="M133.31 153.1C137.196 153.1 140.346 149.958 140.346 146.081C140.346 142.204 137.196 139.061 133.31 139.061C129.424 139.061 126.273 142.204 126.273 146.081C126.273 149.958 129.424 153.1 133.31 153.1Z" fill="#7D170F"/>
<path d="M133.309 149.332C135.109 149.332 136.569 147.876 136.569 146.08C136.569 144.284 135.109 142.828 133.309 142.828C131.509 142.828 130.049 144.284 130.049 146.08C130.049 147.876 131.509 149.332 133.309 149.332Z" fill="#FEFEFE"/>
<path d="M136.05 196.007C135.351 200.111 130.345 205.84 130.345 205.84L130.656 198.601C130.656 198.601 131.005 192.33 128.6 192.136C126.194 191.942 126.504 196.495 126.504 196.495C126.504 196.495 126.659 207.35 126.659 208.667C124.991 210.293 119.441 211.88 119.441 211.88C119.441 211.88 119.441 202.898 119.713 201.853C119.985 200.808 120.877 196.495 117.967 196.495C115.056 196.495 115.6 200.42 115.6 200.42C115.6 200.42 116.22 210.757 116.492 211.996C115.367 213.041 106.985 213.512 106.985 213.512L107.645 202.278C107.645 202.278 107.956 198.988 105.783 198.988C103.609 198.988 103.51 202.317 103.51 202.317C103.51 202.317 103.998 211.88 104.308 213.39C102.018 213.97 94.4128 212.306 94.4128 212.306C94.4128 212.306 94.8396 205.144 95.0337 203.324C95.2278 201.504 96.4304 196.665 93.0937 196.511C89.7565 196.356 91.1147 205.337 91.1147 205.337C91.1147 205.337 91.619 208.744 91.813 211.764C90.4549 211.918 84.0521 208.55 84.0521 208.55V205.84C84.0521 205.84 85.4489 192.136 82.9271 191.981C80.4048 191.826 80.6374 198.717 80.6374 198.717L80.9481 206.111C80.9481 206.111 74.9462 200.847 75.4637 190.729C76.5502 182.213 68.5825 179.477 68.5825 179.477L68.6789 187.063V187.067C75.7226 189.078 73.8296 191.039 74.2737 197.027C74.222 202.447 74.6774 206.968 74.6774 206.968V206.972C74.8889 207.627 75.0957 208.302 75.2935 209.002C76.163 212.076 77.7138 214.751 77.7918 218.913C77.7918 218.913 76.5201 218.82 74.9382 218.61C74.9302 221.869 83.5347 227.688 84.4145 227.327C85.2942 226.965 84.8802 221.855 84.4662 216.694C84.8802 218.397 91.8647 218.552 91.8647 218.552C91.8647 218.552 90.0023 233.263 93.3653 233.47C96.7283 233.676 95.1761 221.081 94.5553 219.429C95.1244 218.862 105.335 220.307 105.335 220.307C105.335 220.307 103.247 234.863 106.558 234.45C109.87 234.037 107.309 220.281 107.309 220.281C109.145 219.533 116.44 219.275 116.44 219.275V223.92C116.44 225.107 114.474 232.953 117.889 232.953C121.304 232.953 120.001 229.73 119.855 227.43C119.71 225.13 119.752 220.565 119.39 218.603C120.683 218.965 126.737 216.797 126.737 216.797C126.737 216.797 126.737 225.933 126.788 227.12C129.932 225.482 132.068 221.909 133.501 217.727C133.979 215.402 135.065 210.074 135.903 205.608C136.302 201.262 136.24 197.568 136.05 196.007Z" fill="#7D170F"/>
</svg>
