<svg width="215" height="208" viewBox="0 0 215 208" fill="none" xmlns="http://www.w3.org/2000/svg">
<path d="M69.6843 105.73C69.6843 105.73 65.9103 109.878 65.7531 109.981C64.4156 100.528 59.8603 88.9201 74.7385 90.6176C73.3108 67.2539 68.0672 56.7236 73.3385 56.7236C77.5418 56.7231 77.7714 69.3174 77.7714 69.3174C77.7714 69.3174 78.6697 68.1128 81.3054 68.2222C83.9411 68.3317 84.3606 78.7903 84.3606 78.7903C84.3606 78.7903 84.9161 77.7219 87.3723 77.9408C89.8284 78.1596 89.6923 86.7297 89.6923 86.7297C89.6923 86.7297 90.4111 86.2915 92.5674 86.4562C94.7237 86.6208 95.3827 94.3409 95.3827 94.3409C95.3827 94.3409 95.9219 93.465 97.4791 93.465C99.0364 93.465 99.396 94.2862 99.396 94.2862L99.9951 94.1768C108.441 83.8828 107.663 72.7125 121.38 70.632C135.098 68.5515 137.314 67.0728 143.664 64.2254C148.216 62.5279 154.087 55.2455 156.243 58.4759C156.243 58.4759 154.806 64.9371 145.7 71.0149C145.7 71.0149 148.216 72.4384 148.097 74.6835C147.977 76.9286 142.706 80.159 142.706 80.159C142.706 80.159 144.323 81.4183 144.203 82.8418C144.083 84.2653 142.825 86.0175 137.734 87.7697C137.734 87.7697 139.471 89.0837 139.291 91.0553C139.111 93.0269 132.282 95.7097 132.282 95.7097C132.282 95.7097 135.996 101.569 126.292 103.704C126.292 103.704 126.951 106.113 125.993 107.482C125.035 108.851 119.823 109.672 119.823 109.672C119.823 109.672 120.902 112.793 117.607 114.107C114.312 115.421 109.46 117.173 109.46 117.173L135.757 141.321C135.757 141.321 140.789 145.153 140.13 147.289C139.472 149.425 137.555 148.11 137.555 148.11C137.555 148.11 140.071 151.943 138.214 153.476C136.356 155.01 129.827 148.439 129.827 148.439C129.827 148.439 132.523 152.71 130.666 154.736C128.809 156.762 124.017 149.096 124.017 149.096C124.017 149.096 124.496 152.71 122.759 154.024C121.021 155.338 115.63 146.742 115.63 146.742C115.63 146.742 114.013 149.589 110.898 150.246C107.783 150.903 106.046 141.595 106.046 141.595C106.046 141.595 106.406 141.924 102.931 143.238C100.056 144.169 99.217 131.192 99.5168 130.644C83.8752 126.811 77.7567 126.335 74.2978 121.609C70.8389 116.884 70.7034 110.658 70.7034 110.658C70.7034 110.658 71.0027 105.949 69.6848 105.731L69.6843 105.73Z" fill="#5577B5"/>
<path d="M128.897 100.802C130.2 99.4468 123.641 99.9396 123.326 97.9686C123.012 95.9975 128.358 92.9173 126.965 91.8908C125.572 90.8642 119.732 96.0383 119.508 97.5578C119.41 98.2198 120.272 100.022 121.215 100.515C122.159 101.007 119.553 103.307 121.26 103.225C122.968 103.143 123.666 99.3239 125.932 101.254C128.199 103.184 128.327 101.396 128.898 100.803L128.897 100.802Z" fill="#F9D9AE"/>
<path d="M72.1407 100.09C73.1002 100.09 73.878 99.3787 73.878 98.5017C73.878 97.6246 73.1002 96.9136 72.1407 96.9136C71.1812 96.9136 70.4033 97.6246 70.4033 98.5017C70.4033 99.3787 71.1812 100.09 72.1407 100.09Z" fill="#F9D9AE"/>
<path d="M150.282 18.5314C150.282 18.5314 148.949 7.85212 126.389 1.87476C125.534 2.37417 125.404 3.2153 125.418 3.42495C127.417 6.37014 134.449 24.112 150.913 24.4994C149.522 19.3318 150.282 18.5308 150.282 18.5308L150.282 18.5314Z" fill="#5577B5"/>
<path d="M191.795 112.748C206.242 113.666 211.589 90.1549 215 80.052C213.327 78.6827 213.842 77.4504 213.719 77.4135C211.166 76.6519 195.399 84.7007 192.009 100.173C191.239 103.49 191.795 112.748 191.795 112.748H191.795Z" fill="#5577B5"/>
<path d="M171.676 45.2665C161.404 54.2235 138.975 45.6107 138.337 43.0617C138.054 41.4082 138.164 41.0634 138.337 40.6503C139.67 41.064 157.29 29.7645 171.142 43.6819C171.142 43.6819 171.676 44.9911 171.676 45.2665Z" fill="#5577B5"/>
<path d="M187.843 75.0939C181.234 75.8099 174.342 75.5201 167.302 71.0009C159.55 66.0249 152.894 58.7646 152.72 57.7307C152.547 56.6968 153.112 54.992 153.72 54.3718C158.719 57.0072 176.237 51.2195 185.974 72.0961L187.843 75.0933V75.0939Z" fill="#5577B5"/>
<path d="M185.282 146.997C202.369 148.286 207.094 129.782 214.633 122.839C214.531 121.481 213.989 121.178 213.428 120.47C194.512 125.424 190.248 131.359 188.286 134.258C188.058 133.402 184.972 146.149 185.281 146.996L185.282 146.997Z" fill="#5577B5"/>
<path d="M191.602 113.247C188.947 91.3108 171.304 89.4515 163.399 81.447C162.204 81.8782 162.053 82.6336 161.544 83.501C170.204 106.363 176.476 110.441 179.512 112.281C178.795 112.761 190.911 113.828 191.602 113.247Z" fill="#5577B5"/>
<path d="M186.038 141.85C188.139 128.225 175.576 114.221 170.273 104.094C169.083 103.868 168.132 104.197 167.607 105.472C167.607 105.472 167.085 134.134 184.473 146.811C185.009 144.4 185.719 143.436 186.038 141.85V141.85Z" fill="#5577B5"/>
<path d="M187.899 75.3921C203.6 63.4418 197.723 43.5784 200.581 31.7106C199.756 30.596 199.116 30.7456 198.241 30.5535C184.317 49.3855 183.789 57.8606 183.636 61.9085C182.972 61.3315 187.168 74.8846 187.899 75.3921Z" fill="#5577B5"/>
<path d="M171.155 45.4431C175.211 39.1985 178.705 32.1315 179.277 22.6445C179.907 12.198 178.327 1.62452 177.687 0.895416C177.047 0.166316 175.533 -0.182274 174.766 0.0949714C173.953 6.52356 160.442 20.986 170.031 41.9591L171.154 45.4425L171.155 45.4431Z" fill="#5577B5"/>
<path d="M170.285 174.809C186.99 184.649 198.282 168.428 208.312 165.225C208.69 163.811 208.253 163.235 207.94 162.245C187.189 157.76 180.806 161.59 177.809 163.519C177.883 162.545 170.274 173.803 170.285 174.81V174.809Z" fill="#5577B5"/>
<path d="M155.583 130.14C154.981 137.997 155.224 146.189 159.026 154.558C163.212 163.774 169.319 171.686 170.189 171.893C171.058 172.099 172.493 171.428 173.014 170.704C170.797 164.762 175.666 143.936 158.104 132.362L155.583 130.14H155.583Z" fill="#5577B5"/>
<path d="M64.7186 18.5314C64.7186 18.5314 66.0516 7.85212 88.6117 1.87476C89.4667 2.37417 89.5967 3.2153 89.5825 3.42495C87.583 6.37014 80.5517 24.112 64.0879 24.4994C65.4788 19.3318 64.7181 18.5308 64.7181 18.5308L64.7186 18.5314Z" fill="#5577B5"/>
<path d="M23.2051 112.748C8.75862 113.666 3.41195 90.1544 0 80.0515C1.6736 78.6822 1.1582 77.4499 1.28139 77.413C3.83469 76.6514 19.6015 84.7003 22.9913 100.173C23.761 103.489 23.2056 112.748 23.2056 112.748H23.2051Z" fill="#5577B5"/>
<path d="M43.3237 45.2665C53.5954 54.2235 76.025 45.6107 76.6625 43.0617C76.9457 41.4082 76.8362 41.0634 76.6625 40.6503C75.3295 41.064 57.7101 29.7645 43.8581 43.6819C43.8581 43.6819 43.3237 44.9911 43.3237 45.2665V45.2665Z" fill="#5577B5"/>
<path d="M27.1582 75.0939C33.7673 75.8099 40.6591 75.5201 47.6989 71.0009C55.4509 66.0249 62.1069 58.7646 62.2806 57.7307C62.4543 56.6968 61.8894 54.992 61.2809 54.3718C56.2822 57.0072 38.7639 51.2195 29.0271 72.0961L27.1582 75.0933V75.0939Z" fill="#5577B5"/>
<path d="M29.7191 146.997C12.632 148.286 7.90703 129.782 0.367676 122.839C0.469281 121.481 1.01153 121.178 1.5722 120.47C20.4888 125.424 24.7525 131.359 26.7151 134.258C26.9431 133.402 30.0292 146.149 29.7196 146.996L29.7191 146.997Z" fill="#5577B5"/>
<path d="M23.3994 113.247C26.0543 91.3108 43.6974 89.4515 51.6032 81.447C52.7977 81.8782 52.9488 82.6336 53.4579 83.501C44.7982 106.363 38.526 110.441 35.4894 112.281C36.2065 112.761 24.0906 113.828 23.3994 113.247V113.247Z" fill="#5577B5"/>
<path d="M28.9631 141.85C26.862 128.225 39.4248 114.221 44.7278 104.094C45.9176 103.868 46.8689 104.197 47.3937 105.472C47.3937 105.472 47.9155 134.134 30.5277 146.811C29.9918 144.4 29.2816 143.436 28.9631 141.85V141.85Z" fill="#5577B5"/>
<path d="M27.1012 75.3921C11.4007 63.4418 17.2776 43.5784 14.4194 31.7106C15.2444 30.596 15.8846 30.7456 16.7595 30.5535C30.6837 49.3855 31.2112 57.8606 31.3644 61.9085C32.0288 61.3315 27.8324 74.8846 27.1012 75.3921Z" fill="#5577B5"/>
<path d="M43.8457 45.4431C39.7899 39.1985 36.2953 32.1315 35.7236 22.6445C35.094 12.198 36.6733 1.62452 37.3135 0.895416C37.9537 0.166316 39.4672 -0.182274 40.2343 0.0949714C41.0476 6.52356 54.5591 20.986 44.9697 41.9591L43.8463 45.4425L43.8457 45.4431Z" fill="#5577B5"/>
<path d="M44.7156 174.809C28.0106 184.648 16.7182 168.427 6.68871 165.225C6.31019 163.811 6.74767 163.235 7.06038 162.245C27.8116 157.76 34.1938 161.59 37.1909 163.519C37.1172 162.545 44.7266 173.803 44.7156 174.81V174.809Z" fill="#5577B5"/>
<path d="M59.4182 130.14C60.0205 137.997 59.7768 146.189 55.9752 154.558C51.7894 163.774 45.682 171.686 44.8123 171.893C43.9426 172.099 42.5085 171.428 41.9868 170.704C44.2037 164.762 39.3351 143.936 56.8965 132.362L59.4177 130.14H59.4182Z" fill="#5577B5"/>
<path d="M146.028 19.617C172.548 36.2529 190.623 69.3584 190.623 107.483C190.623 162.316 153.231 206.766 107.106 206.766C60.9804 206.766 23.5874 162.315 23.5874 107.483C23.5874 67.0247 43.9438 32.2188 73.1447 16.75" stroke="#863259" stroke-width="2" stroke-miterlimit="10" stroke-linecap="round"/>
</svg>
